<svg version="1.1" xmlns="http://www.w3.org/2000/svg" xmlns:xlink="http://www.w3.org/1999/xlink" width="641" height="307"><defs></defs><g><g transform="translate(-161,-74) scale(1,1)"><rect fill="#C0C0C0" stroke="none" x="178" y="276" width="148" height="102" opacity="0.2"></rect></g><g transform="translate(-161,-74) scale(1,1)"><rect fill="#ffffff" stroke="none" x="171" y="269" width="148" height="102"></rect></g><g transform="translate(-161,-74) scale(1,1)"><path fill="none" stroke="#000000" d="M 171 269 L 319 269 L 319 371 L 171 371 L 171 269 Z Z" stroke-miterlimit="10"></path></g><g transform="translate(-161,-74) scale(1,1)"><path fill="none" stroke="#000000" d="M 171 294 L 319 294" stroke-miterlimit="10"></path></g><g transform="translate(-161,-74) scale(1,1)"><path fill="none" stroke="#000000" d="M 171 362 L 319 362" stroke-miterlimit="10"></path></g><g transform="translate(-161,-74) scale(1,1)"><g><path fill="none" stroke="none"></path><text fill="#000000" stroke="none" font-family="Arial" font-size="13px" font-style="normal" font-weight="bold" text-decoration="none" x="230" y="288.5">User</text></g></g><g transform="translate(-161,-74) scale(1,1)"><g><path fill="none" stroke="none"></path><text fill="#000000" stroke="none" font-family="Arial" font-size="13px" font-style="normal" font-weight="normal" text-decoration="none" x="176" y="311.5">+username {unique}</text></g></g><g transform="translate(-161,-74) scale(1,1)"><g><path fill="none" stroke="none"></path><text fill="#000000" stroke="none" font-family="Arial" font-size="13px" font-style="normal" font-weight="normal" text-decoration="none" x="176" y="326.5">+name</text></g></g><g transform="translate(-161,-74) scale(1,1)"><g><path fill="none" stroke="none"></path><text fill="#000000" stroke="none" font-family="Arial" font-size="13px" font-style="normal" font-weight="normal" text-decoration="none" x="176" y="341.5">+email {unique}</text></g></g><g transform="translate(-161,-74) scale(1,1)"><g><path fill="none" stroke="none"></path><text fill="#000000" stroke="none" font-family="Arial" font-size="13px" font-style="normal" font-weight="normal" text-decoration="none" x="176" y="356.5">+biography</text></g></g><g transform="translate(-161,-74) scale(1,1)"><rect fill="#C0C0C0" stroke="none" x="495" y="299" width="84" height="57" opacity="0.2"></rect></g><g transform="translate(-161,-74) scale(1,1)"><rect fill="#ffffff" stroke="none" x="488" y="292" width="84" height="57"></rect></g><g transform="translate(-161,-74) scale(1,1)"><path fill="none" stroke="#000000" d="M 488 292 L 572 292 L 572 349 L 488 349 L 488 292 Z Z" stroke-miterlimit="10"></path></g><g transform="translate(-161,-74) scale(1,1)"><path fill="none" stroke="#000000" d="M 488 317 L 572 317" stroke-miterlimit="10"></path></g><g transform="translate(-161,-74) scale(1,1)"><path fill="none" stroke="#000000" d="M 488 340 L 572 340" stroke-miterlimit="10"></path></g><g transform="translate(-161,-74) scale(1,1)"><g><path fill="none" stroke="none"></path><text fill="#000000" stroke="none" font-family="Arial" font-size="13px" font-style="normal" font-weight="bold" text-decoration="none" x="516" y="311.5">Post</text></g></g><g transform="translate(-161,-74) scale(1,1)"><g><path fill="none" stroke="none"></path><text fill="#000000" stroke="none" font-family="Arial" font-size="13px" font-style="normal" font-weight="normal" text-decoration="none" x="493" y="334.5">+text</text></g></g><g transform="translate(-161,-74) scale(1,1)"><rect fill="#C0C0C0" stroke="none" x="210" y="91" width="84" height="57" opacity="0.2"></rect></g><g transform="translate(-161,-74) scale(1,1)"><rect fill="#ffffff" stroke="none" x="203" y="84" width="84" height="57"></rect></g><g transform="translate(-161,-74) scale(1,1)"><path fill="none" stroke="#000000" d="M 203 84 L 287 84 L 287 141 L 203 141 L 203 84 Z Z" stroke-miterlimit="10"></path></g><g transform="translate(-161,-74) scale(1,1)"><path fill="none" stroke="#000000" d="M 203 109 L 287 109" stroke-miterlimit="10"></path></g><g transform="translate(-161,-74) scale(1,1)"><path fill="none" stroke="#000000" d="M 203 132 L 287 132" stroke-miterlimit="10"></path></g><g transform="translate(-161,-74) scale(1,1)"><g><path fill="none" stroke="none"></path><text fill="#000000" stroke="none" font-family="Arial" font-size="13px" font-style="normal" font-weight="bold" text-decoration="none" x="227.5" y="103.5">Circle</text></g></g><g transform="translate(-161,-74) scale(1,1)"><g><path fill="none" stroke="none"></path><text fill="#000000" stroke="none" font-family="Arial" font-size="13px" font-style="normal" font-weight="normal" text-decoration="none" x="208" y="126.5">+name</text></g></g><g transform="translate(-161,-74) scale(1,1)"><path fill="none" stroke="#000000" d="M 319 329 L 488 329" stroke-miterlimit="10"></path></g><g transform="translate(-161,-74) scale(1,1)"><g><path fill="none" stroke="none"></path><text fill="#000000" stroke="none" font-family="Arial" font-size="13px" font-style="normal" font-weight="normal" text-decoration="none" x="371" y="321">+posts &gt; </text></g></g><g transform="translate(-161,-74) scale(1,1)"><g><path fill="none" stroke="none"></path><text fill="#000000" stroke="none" font-family="Arial" font-size="13px" font-style="normal" font-weight="normal" text-decoration="none" x="337" y="348">*</text></g></g><g transform="translate(-161,-74) scale(1,1)"><g><path fill="none" stroke="none"></path><text fill="#000000" stroke="none" font-family="Arial" font-size="13px" font-style="normal" font-weight="normal" text-decoration="none" x="463" y="348">*</text></g></g><g transform="translate(-161,-74) scale(1,1)"><path fill="none" stroke="#000000" d="M 245 268 L 245 142" stroke-miterlimit="10"></path></g><g transform="translate(-161,-74) scale(1,1)"><path fill="#FFFFFF" stroke="none" d="M 249.209517756016 152.16267485762415 L 245 142 L 240.790482243984 152.16267485762415 L 245 164"></path></g><g transform="translate(-161,-74) scale(1,1)"><path fill="none" stroke="#000000" d="M 249.209517756016 152.16267485762415 L 245 142 L 240.790482243984 152.16267485762415 L 245 164 L 249.209517756016 152.16267485762415" stroke-miterlimit="10"></path></g><g transform="translate(-161,-74) scale(1,1)"><g><path fill="none" stroke="none"></path><text fill="#000000" stroke="none" font-family="Arial" font-size="13px" font-style="normal" font-weight="normal" text-decoration="none" x="199" y="211">+group in</text></g></g><g transform="translate(-161,-74) scale(1,1)"><g><path fill="none" stroke="none"></path><text fill="#000000" stroke="none" font-family="Arial" font-size="13px" font-style="normal" font-weight="normal" text-decoration="none" x="253" y="253">1</text></g></g><g transform="translate(-161,-74) scale(1,1)"><g><path fill="none" stroke="none"></path><text fill="#000000" stroke="none" font-family="Arial" font-size="13px" font-style="normal" font-weight="normal" text-decoration="none" x="254" y="170">*</text></g></g><g transform="translate(-161,-74) scale(1,1)"><rect fill="#C0C0C0" stroke="none" x="715" y="291" width="84" height="72" opacity="0.2"></rect></g><g transform="translate(-161,-74) scale(1,1)"><rect fill="#ffffff" stroke="none" x="708" y="284" width="84" height="72"></rect></g><g transform="translate(-161,-74) scale(1,1)"><path fill="none" stroke="#000000" d="M 708 284 L 792 284 L 792 356 L 708 356 L 708 284 Z Z" stroke-miterlimit="10"></path></g><g transform="translate(-161,-74) scale(1,1)"><path fill="none" stroke="#000000" d="M 708 309 L 792 309" stroke-miterlimit="10"></path></g><g transform="translate(-161,-74) scale(1,1)"><path fill="none" stroke="#000000" d="M 708 347 L 792 347" stroke-miterlimit="10"></path></g><g transform="translate(-161,-74) scale(1,1)"><g><path fill="none" stroke="none"></path><text fill="#000000" stroke="none" font-family="Arial" font-size="13px" font-style="normal" font-weight="bold" text-decoration="none" x="731.5" y="303.5">Photo</text></g></g><g transform="translate(-161,-74) scale(1,1)"><g><path fill="none" stroke="none"></path><text fill="#000000" stroke="none" font-family="Arial" font-size="13px" font-style="normal" font-weight="normal" text-decoration="none" x="713" y="326.5">+name</text></g></g><g transform="translate(-161,-74) scale(1,1)"><g><path fill="none" stroke="none"></path><text fill="#000000" stroke="none" font-family="Arial" font-size="13px" font-style="normal" font-weight="normal" text-decoration="none" x="713" y="341.5">+file</text></g></g><g transform="translate(-161,-74) scale(1,1)"><path fill="none" stroke="#000000" d="M 573 320 L 707 320" stroke-miterlimit="10"></path></g><g transform="translate(-161,-74) scale(1,1)"><g><path fill="none" stroke="none"></path><text fill="#000000" stroke="none" font-family="Arial" font-size="13px" font-style="normal" font-weight="normal" text-decoration="none" x="607" y="311">+contains</text></g></g><g transform="translate(-161,-74) scale(1,1)"><g><path fill="none" stroke="none"></path><text fill="#000000" stroke="none" font-family="Arial" font-size="13px" font-style="normal" font-weight="normal" text-decoration="none" x="590" y="339">1</text></g></g><g transform="translate(-161,-74) scale(1,1)"><g><path fill="none" stroke="none"></path><text fill="#000000" stroke="none" font-family="Arial" font-size="13px" font-style="normal" font-weight="normal" text-decoration="none" x="673" y="339">0..1</text></g></g></g></svg>