<svg version="1.1" xmlns="http://www.w3.org/2000/svg" xmlns:xlink="http://www.w3.org/1999/xlink" width="816" height="329"><defs></defs><g><g transform="translate(-74,-278) scale(1,1)"><rect fill="#C0C0C0" stroke="none" x="263" y="339" width="148" height="117" opacity="0.2"></rect></g><g transform="translate(-74,-278) scale(1,1)"><rect fill="#ffffff" stroke="none" x="256" y="332" width="148" height="117"></rect></g><g transform="translate(-74,-278) scale(1,1)"><path fill="none" stroke="#000000" d="M 256 332 L 404 332 L 404 449 L 256 449 L 256 332 Z Z" stroke-miterlimit="10"></path></g><g transform="translate(-74,-278) scale(1,1)"><path fill="none" stroke="#000000" d="M 256 357 L 404 357" stroke-miterlimit="10"></path></g><g transform="translate(-74,-278) scale(1,1)"><path fill="none" stroke="#000000" d="M 256 440 L 404 440" stroke-miterlimit="10"></path></g><g transform="translate(-74,-278) scale(1,1)"><g><path fill="none" stroke="none"></path><text fill="#000000" stroke="none" font-family="Arial" font-size="13px" font-style="normal" font-weight="bold" text-decoration="none" x="315" y="351.5">User</text></g></g><g transform="translate(-74,-278) scale(1,1)"><g><path fill="none" stroke="none"></path><text fill="#000000" stroke="none" font-family="Arial" font-size="13px" font-style="normal" font-weight="normal" text-decoration="none" x="261" y="374.5">+username {unique}</text></g></g><g transform="translate(-74,-278) scale(1,1)"><g><path fill="none" stroke="none"></path><text fill="#000000" stroke="none" font-family="Arial" font-size="13px" font-style="normal" font-weight="normal" text-decoration="none" x="261" y="389.5">+email {unique}</text></g></g><g transform="translate(-74,-278) scale(1,1)"><g><path fill="none" stroke="none"></path><text fill="#000000" stroke="none" font-family="Arial" font-size="13px" font-style="normal" font-weight="normal" text-decoration="none" x="261" y="404.5">+password</text></g></g><g transform="translate(-74,-278) scale(1,1)"><g><path fill="none" stroke="none"></path><text fill="#000000" stroke="none" font-family="Arial" font-size="13px" font-style="normal" font-weight="normal" text-decoration="none" x="261" y="419.5">+name</text></g></g><g transform="translate(-74,-278) scale(1,1)"><g><path fill="none" stroke="none"></path><text fill="#000000" stroke="none" font-family="Arial" font-size="13px" font-style="normal" font-weight="normal" text-decoration="none" x="261" y="434.5">+biography</text></g></g><g transform="translate(-74,-278) scale(1,1)"><rect fill="#C0C0C0" stroke="none" x="583" y="362" width="84" height="57" opacity="0.2"></rect></g><g transform="translate(-74,-278) scale(1,1)"><rect fill="#ffffff" stroke="none" x="576" y="355" width="84" height="57"></rect></g><g transform="translate(-74,-278) scale(1,1)"><path fill="none" stroke="#000000" d="M 576 355 L 660 355 L 660 412 L 576 412 L 576 355 Z Z" stroke-miterlimit="10"></path></g><g transform="translate(-74,-278) scale(1,1)"><path fill="none" stroke="#000000" d="M 576 380 L 660 380" stroke-miterlimit="10"></path></g><g transform="translate(-74,-278) scale(1,1)"><path fill="none" stroke="#000000" d="M 576 403 L 660 403" stroke-miterlimit="10"></path></g><g transform="translate(-74,-278) scale(1,1)"><g><path fill="none" stroke="none"></path><text fill="#000000" stroke="none" font-family="Arial" font-size="13px" font-style="normal" font-weight="bold" text-decoration="none" x="604" y="374.5">Post</text></g></g><g transform="translate(-74,-278) scale(1,1)"><g><path fill="none" stroke="none"></path><text fill="#000000" stroke="none" font-family="Arial" font-size="13px" font-style="normal" font-weight="normal" text-decoration="none" x="581" y="397.5">+text</text></g></g><g transform="translate(-74,-278) scale(1,1)"><rect fill="#C0C0C0" stroke="none" x="286" y="547" width="104" height="57" opacity="0.2"></rect></g><g transform="translate(-74,-278) scale(1,1)"><rect fill="#ffffff" stroke="none" x="279" y="540" width="104" height="57"></rect></g><g transform="translate(-74,-278) scale(1,1)"><path fill="none" stroke="#000000" d="M 279 540 L 383 540 L 383 597 L 279 597 L 279 540 Z Z" stroke-miterlimit="10"></path></g><g transform="translate(-74,-278) scale(1,1)"><path fill="none" stroke="#000000" d="M 279 565 L 383 565" stroke-miterlimit="10"></path></g><g transform="translate(-74,-278) scale(1,1)"><path fill="none" stroke="#000000" d="M 279 588 L 383 588" stroke-miterlimit="10"></path></g><g transform="translate(-74,-278) scale(1,1)"><g><path fill="none" stroke="none"></path><text fill="#000000" stroke="none" font-family="Arial" font-size="13px" font-style="normal" font-weight="bold" text-decoration="none" x="313.5" y="559.5">Circle</text></g></g><g transform="translate(-74,-278) scale(1,1)"><g><path fill="none" stroke="none"></path><text fill="#000000" stroke="none" font-family="Arial" font-size="13px" font-style="normal" font-weight="normal" text-decoration="none" x="284" y="582.5">+name</text></g></g><g transform="translate(-74,-278) scale(1,1)"><path fill="none" stroke="#000000" d="M 404 384 L 576 384" stroke-miterlimit="10"></path></g><g transform="translate(-74,-278) scale(1,1)"><g><path fill="none" stroke="none"></path><text fill="#000000" stroke="none" font-family="Arial" font-size="13px" font-style="normal" font-weight="normal" text-decoration="none" x="466" y="376">+writes</text></g></g><g transform="translate(-74,-278) scale(1,1)"><g><path fill="none" stroke="none"></path><text fill="#000000" stroke="none" font-family="Arial" font-size="13px" font-style="normal" font-weight="normal" text-decoration="none" x="421" y="403">1</text></g></g><g transform="translate(-74,-278) scale(1,1)"><g><path fill="none" stroke="none"></path><text fill="#000000" stroke="none" font-family="Arial" font-size="13px" font-style="normal" font-weight="normal" text-decoration="none" x="551" y="403">*</text></g></g><g transform="translate(-74,-278) scale(1,1)"><path fill="none" stroke="#000000" d="M 366 450 Q 400 508 364 539" stroke-miterlimit="10"></path></g><g transform="translate(-74,-278) scale(1,1)"><path fill="#FFFFFF" stroke="none" d="M 368.9541502310603 529.1787783097984 L 364 539 L 374.44776568007757 535.5584607667217 L 380.6709136517749 524.6444910220827"></path></g><g transform="translate(-74,-278) scale(1,1)"><path fill="none" stroke="#000000" d="M 368.9541502310603 529.1787783097984 L 364 539 L 374.44776568007757 535.5584607667217 L 380.6709136517749 524.6444910220827 L 368.9541502310603 529.1787783097984" stroke-miterlimit="10"></path></g><g transform="translate(-74,-278) scale(1,1)"><g><path fill="none" stroke="none"></path><text fill="#000000" stroke="none" font-family="Arial" font-size="13px" font-style="normal" font-weight="normal" text-decoration="none" x="380" y="501">+grouped in</text></g></g><g transform="translate(-74,-278) scale(1,1)"><g><path fill="none" stroke="none"></path><text fill="#000000" stroke="none" font-family="Arial" font-size="13px" font-style="normal" font-weight="normal" text-decoration="none" x="362" y="481">1</text></g></g><g transform="translate(-74,-278) scale(1,1)"><g><path fill="none" stroke="none"></path><text fill="#000000" stroke="none" font-family="Arial" font-size="13px" font-style="normal" font-weight="normal" text-decoration="none" x="369" y="522">*</text></g></g><g transform="translate(-74,-278) scale(1,1)"><rect fill="#C0C0C0" stroke="none" x="803" y="362" width="84" height="57" opacity="0.2"></rect></g><g transform="translate(-74,-278) scale(1,1)"><rect fill="#ffffff" stroke="none" x="796" y="355" width="84" height="57"></rect></g><g transform="translate(-74,-278) scale(1,1)"><path fill="none" stroke="#000000" d="M 796 355 L 880 355 L 880 412 L 796 412 L 796 355 Z Z" stroke-miterlimit="10"></path></g><g transform="translate(-74,-278) scale(1,1)"><path fill="none" stroke="#000000" d="M 796 380 L 880 380" stroke-miterlimit="10"></path></g><g transform="translate(-74,-278) scale(1,1)"><path fill="none" stroke="#000000" d="M 796 403 L 880 403" stroke-miterlimit="10"></path></g><g transform="translate(-74,-278) scale(1,1)"><g><path fill="none" stroke="none"></path><text fill="#000000" stroke="none" font-family="Arial" font-size="13px" font-style="normal" font-weight="bold" text-decoration="none" x="819.5" y="374.5">Photo</text></g></g><g transform="translate(-74,-278) scale(1,1)"><g><path fill="none" stroke="none"></path><text fill="#000000" stroke="none" font-family="Arial" font-size="13px" font-style="normal" font-weight="normal" text-decoration="none" x="801" y="397.5">+file</text></g></g><g transform="translate(-74,-278) scale(1,1)"><path fill="none" stroke="#000000" d="M 661 383 L 795 383" stroke-miterlimit="10"></path></g><g transform="translate(-74,-278) scale(1,1)"><g><path fill="none" stroke="none"></path><text fill="#000000" stroke="none" font-family="Arial" font-size="13px" font-style="normal" font-weight="normal" text-decoration="none" x="695" y="374">+contains</text></g></g><g transform="translate(-74,-278) scale(1,1)"><g><path fill="none" stroke="none"></path><text fill="#000000" stroke="none" font-family="Arial" font-size="13px" font-style="normal" font-weight="normal" text-decoration="none" x="678" y="402">1</text></g></g><g transform="translate(-74,-278) scale(1,1)"><g><path fill="none" stroke="none"></path><text fill="#000000" stroke="none" font-family="Arial" font-size="13px" font-style="normal" font-weight="normal" text-decoration="none" x="761" y="402">0..1</text></g></g><g transform="translate(-74,-278) scale(1,1)"><rect fill="#C0C0C0" stroke="none" x="91" y="362" width="84" height="57" opacity="0.2"></rect></g><g transform="translate(-74,-278) scale(1,1)"><rect fill="#ffffff" stroke="none" x="84" y="355" width="84" height="57"></rect></g><g transform="translate(-74,-278) scale(1,1)"><path fill="none" stroke="#000000" d="M 84 355 L 168 355 L 168 412 L 84 412 L 84 355 Z Z" stroke-miterlimit="10"></path></g><g transform="translate(-74,-278) scale(1,1)"><path fill="none" stroke="#000000" d="M 84 380 L 168 380" stroke-miterlimit="10"></path></g><g transform="translate(-74,-278) scale(1,1)"><path fill="none" stroke="#000000" d="M 84 403 L 168 403" stroke-miterlimit="10"></path></g><g transform="translate(-74,-278) scale(1,1)"><g><path fill="none" stroke="none"></path><text fill="#000000" stroke="none" font-family="Arial" font-size="13px" font-style="normal" font-weight="bold" text-decoration="none" x="115" y="374.5">List</text></g></g><g transform="translate(-74,-278) scale(1,1)"><g><path fill="none" stroke="none"></path><text fill="#000000" stroke="none" font-family="Arial" font-size="13px" font-style="normal" font-weight="normal" text-decoration="none" x="89" y="397.5">+name</text></g></g><g transform="translate(-74,-278) scale(1,1)"><path fill="none" stroke="#000000" d="M 255 387 L 169 384" stroke-miterlimit="10"></path></g><g transform="translate(-74,-278) scale(1,1)"><g><path fill="none" stroke="none"></path><text fill="#000000" stroke="none" font-family="Arial" font-size="13px" font-style="normal" font-weight="normal" text-decoration="none" x="189" y="406">+views</text></g></g><g transform="translate(-74,-278) scale(1,1)"><path fill="none" stroke="#000000" d="M 330 450 L 331 539" stroke-miterlimit="10"></path></g><g transform="translate(-74,-278) scale(1,1)"><g><path fill="none" stroke="none"></path><text fill="#000000" stroke="none" font-family="Arial" font-size="13px" font-style="normal" font-weight="normal" text-decoration="none" x="294" y="504">+has</text></g></g><g transform="translate(-74,-278) scale(1,1)"><path fill="none" stroke="#000000" d="M 405 347 Q 508 288 584 354" stroke-miterlimit="10"></path></g><g transform="translate(-74,-278) scale(1,1)"><g><path fill="none" stroke="none"></path><text fill="#000000" stroke="none" font-family="Arial" font-size="13px" font-style="normal" font-weight="normal" text-decoration="none" x="470" y="305">+favorites</text></g></g><g transform="translate(-74,-278) scale(1,1)"><g><path fill="none" stroke="none"></path><text fill="#000000" stroke="none" font-family="Arial" font-size="13px" font-style="normal" font-weight="normal" text-decoration="none" x="426" y="354">*</text></g></g><g transform="translate(-74,-278) scale(1,1)"><g><path fill="none" stroke="none"></path><text fill="#000000" stroke="none" font-family="Arial" font-size="13px" font-style="normal" font-weight="normal" text-decoration="none" x="556" y="356">*</text></g></g><g transform="translate(-74,-278) scale(1,1)"><path fill="none" stroke="#000000" d="M 405 410 Q 488 432 575 399" stroke-miterlimit="10"></path></g><g transform="translate(-74,-278) scale(1,1)"><g><path fill="none" stroke="none"></path><text fill="#000000" stroke="none" font-family="Arial" font-size="13px" font-style="normal" font-weight="normal" text-decoration="none" x="453" y="432">+reposts</text></g></g><g transform="translate(-74,-278) scale(1,1)"><g><path fill="none" stroke="none"></path><text fill="#000000" stroke="none" font-family="Arial" font-size="13px" font-style="normal" font-weight="normal" text-decoration="none" x="419" y="434">*</text></g></g><g transform="translate(-74,-278) scale(1,1)"><g><path fill="none" stroke="none"></path><text fill="#000000" stroke="none" font-family="Arial" font-size="13px" font-style="normal" font-weight="normal" text-decoration="none" x="556" y="425">*</text></g></g></g></svg>