<svg version="1.1" xmlns="http://www.w3.org/2000/svg" xmlns:xlink="http://www.w3.org/1999/xlink" width="892" height="399"><defs></defs><g><g transform="translate(-130,-140) scale(1,1)"><rect fill="#C0C0C0" stroke="none" x="587" y="157" width="93" height="45" opacity="0.2"></rect></g><g transform="translate(-130,-140) scale(1,1)"><rect fill="#ffffff" stroke="none" x="580" y="150" width="93" height="45"></rect></g><g transform="translate(-130,-140) scale(1,1)"><path fill="none" stroke="#000000" d="M 580 150 L 673 150 L 673 195 L 580 195 L 580 150 Z Z" stroke-miterlimit="10"></path></g><g transform="translate(-130,-140) scale(1,1)"><path fill="none" stroke="#000000" d="M 580 173 L 673 173" stroke-miterlimit="10"></path></g><g transform="translate(-130,-140) scale(1,1)"><path fill="none" stroke="#000000" d="M 590 173 L 590 195" stroke-miterlimit="10"></path></g><g transform="translate(-130,-140) scale(1,1)"><path fill="none" stroke="#000000" d="M 641 173 L 641 195" stroke-miterlimit="10"></path></g><g transform="translate(-130,-140) scale(1,1)"><g><path fill="none" stroke="none"></path><text fill="#000000" stroke="none" font-family="Arial" font-size="13px" font-style="normal" font-weight="bold" text-decoration="none" x="599.5" y="167.5">Hashtag</text></g></g><g transform="translate(-130,-140) scale(1,1)"><g><path fill="none" stroke="none"></path><text fill="#000000" stroke="none" font-family="Arial" font-size="13px" font-style="normal" font-weight="normal" text-decoration="none" x="585" y="191"></text></g></g><g transform="translate(-130,-140) scale(1,1)"><g><path fill="none" stroke="none"></path><text fill="#000000" stroke="none" font-family="Arial" font-size="13px" font-style="normal" font-weight="normal" text-decoration="none" x="595" y="191">name</text></g></g><g transform="translate(-130,-140) scale(1,1)"><g><path fill="none" stroke="none"></path><text fill="#000000" stroke="none" font-family="Arial" font-size="13px" font-style="normal" font-weight="normal" text-decoration="none" x="646" y="191"></text></g></g><g transform="translate(-130,-140) scale(1,1)"><rect fill="#C0C0C0" stroke="none" x="727" y="157" width="102" height="45" opacity="0.2"></rect></g><g transform="translate(-130,-140) scale(1,1)"><rect fill="#ffffff" stroke="none" x="720" y="150" width="102" height="45"></rect></g><g transform="translate(-130,-140) scale(1,1)"><path fill="none" stroke="#000000" d="M 720 150 L 822 150 L 822 195 L 720 195 L 720 150 Z Z" stroke-miterlimit="10"></path></g><g transform="translate(-130,-140) scale(1,1)"><path fill="none" stroke="#000000" d="M 720 173 L 822 173" stroke-miterlimit="10"></path></g><g transform="translate(-130,-140) scale(1,1)"><path fill="none" stroke="#000000" d="M 730 173 L 730 195" stroke-miterlimit="10"></path></g><g transform="translate(-130,-140) scale(1,1)"><path fill="none" stroke="#000000" d="M 813 173 L 813 195" stroke-miterlimit="10"></path></g><g transform="translate(-130,-140) scale(1,1)"><g><path fill="none" stroke="none"></path><text fill="#000000" stroke="none" font-family="Arial" font-size="13px" font-style="normal" font-weight="bold" text-decoration="none" x="745.5" y="167.5">Mention</text></g></g><g transform="translate(-130,-140) scale(1,1)"><g><path fill="none" stroke="none"></path><text fill="#000000" stroke="none" font-family="Arial" font-size="13px" font-style="normal" font-weight="normal" text-decoration="none" x="725" y="191"></text></g></g><g transform="translate(-130,-140) scale(1,1)"><g><path fill="none" stroke="none"></path><text fill="#000000" stroke="none" font-family="Arial" font-size="13px" font-style="normal" font-weight="normal" text-decoration="none" x="735" y="191">username</text></g></g><g transform="translate(-130,-140) scale(1,1)"><g><path fill="none" stroke="none"></path><text fill="#000000" stroke="none" font-family="Arial" font-size="13px" font-style="normal" font-weight="normal" text-decoration="none" x="818" y="191"></text></g></g><g transform="translate(-130,-140) scale(1,1)"><path fill="none" stroke="#000000" d="M 630 293 L 630 195" stroke-miterlimit="10"></path></g><g transform="translate(-130,-140) scale(1,1)"><path fill="none" stroke="#000000" d="M 630 209 L 637 195" stroke-miterlimit="10"></path></g><g transform="translate(-130,-140) scale(1,1)"><path fill="none" stroke="#000000" d="M 630 209 L 623 195" stroke-miterlimit="10"></path></g><g transform="translate(-130,-140) scale(1,1)"><path fill="#FFFFFF" stroke="none" d="M 623 217 C 623 213.1340064 626.1340064 210 630 210 C 633.8659936 210 637 213.1340064 637 217 C 637 220.8659936 633.8659936 224 630 224 C 626.1340064 224 623 220.8659936 623 217 Z"></path></g><g transform="translate(-130,-140) scale(1,1)"><path fill="none" stroke="#000000" d="M 623 217 C 623 213.1340064 626.1340064 210 630 210 C 633.8659936 210 637 213.1340064 637 217 C 637 220.8659936 633.8659936 224 630 224 C 626.1340064 224 623 220.8659936 623 217 Z" stroke-miterlimit="10"></path></g><g transform="translate(-130,-140) scale(1,1)"><path fill="none" stroke="#000000" d="M 630 279 L 623 293" stroke-miterlimit="10"></path></g><g transform="translate(-130,-140) scale(1,1)"><path fill="none" stroke="#000000" d="M 630 279 L 637 293" stroke-miterlimit="10"></path></g><g transform="translate(-130,-140) scale(1,1)"><path fill="#FFFFFF" stroke="none" d="M 623 271 C 623 267.1340064 626.1340064 264 630 264 C 633.8659936 264 637 267.1340064 637 271 C 637 274.8659936 633.8659936 278 630 278 C 626.1340064 278 623 274.8659936 623 271 Z"></path></g><g transform="translate(-130,-140) scale(1,1)"><path fill="none" stroke="#000000" d="M 623 271 C 623 267.1340064 626.1340064 264 630 264 C 633.8659936 264 637 267.1340064 637 271 C 637 274.8659936 633.8659936 278 630 278 C 626.1340064 278 623 274.8659936 623 271 Z" stroke-miterlimit="10"></path></g><g transform="translate(-130,-140) scale(1,1)"><g><path fill="none" stroke="none"></path><text fill="#000000" stroke="none" font-family="Arial" font-size="13px" font-style="normal" font-weight="normal" text-decoration="none" x="615" y="274"></text></g></g><g transform="translate(-130,-140) scale(1,1)"><g><path fill="none" stroke="none"></path><text fill="#000000" stroke="none" font-family="Arial" font-size="13px" font-style="normal" font-weight="normal" text-decoration="none" x="615" y="227"></text></g></g><g transform="translate(-130,-140) scale(1,1)"><path fill="none" stroke="#000000" d="M 788 293 L 788 195" stroke-miterlimit="10"></path></g><g transform="translate(-130,-140) scale(1,1)"><path fill="none" stroke="#000000" d="M 788 209 L 795 195" stroke-miterlimit="10"></path></g><g transform="translate(-130,-140) scale(1,1)"><path fill="none" stroke="#000000" d="M 788 209 L 781 195" stroke-miterlimit="10"></path></g><g transform="translate(-130,-140) scale(1,1)"><path fill="#FFFFFF" stroke="none" d="M 781 217 C 781 213.1340064 784.1340064 210 788 210 C 791.8659936 210 795 213.1340064 795 217 C 795 220.8659936 791.8659936 224 788 224 C 784.1340064 224 781 220.8659936 781 217 Z"></path></g><g transform="translate(-130,-140) scale(1,1)"><path fill="none" stroke="#000000" d="M 781 217 C 781 213.1340064 784.1340064 210 788 210 C 791.8659936 210 795 213.1340064 795 217 C 795 220.8659936 791.8659936 224 788 224 C 784.1340064 224 781 220.8659936 781 217 Z" stroke-miterlimit="10"></path></g><g transform="translate(-130,-140) scale(1,1)"><path fill="none" stroke="#000000" d="M 788 279 L 781 293" stroke-miterlimit="10"></path></g><g transform="translate(-130,-140) scale(1,1)"><path fill="none" stroke="#000000" d="M 788 279 L 795 293" stroke-miterlimit="10"></path></g><g transform="translate(-130,-140) scale(1,1)"><path fill="#FFFFFF" stroke="none" d="M 781 271 C 781 267.1340064 784.1340064 264 788 264 C 791.8659936 264 795 267.1340064 795 271 C 795 274.8659936 791.8659936 278 788 278 C 784.1340064 278 781 274.8659936 781 271 Z"></path></g><g transform="translate(-130,-140) scale(1,1)"><path fill="none" stroke="#000000" d="M 781 271 C 781 267.1340064 784.1340064 264 788 264 C 791.8659936 264 795 267.1340064 795 271 C 795 274.8659936 791.8659936 278 788 278 C 784.1340064 278 781 274.8659936 781 271 Z" stroke-miterlimit="10"></path></g><g transform="translate(-130,-140) scale(1,1)"><g><path fill="none" stroke="none"></path><text fill="#000000" stroke="none" font-family="Arial" font-size="13px" font-style="normal" font-weight="normal" text-decoration="none" x="773" y="274"></text></g></g><g transform="translate(-130,-140) scale(1,1)"><g><path fill="none" stroke="none"></path><text fill="#000000" stroke="none" font-family="Arial" font-size="13px" font-style="normal" font-weight="normal" text-decoration="none" x="773" y="227"></text></g></g><g transform="translate(-130,-140) scale(1,1)"><rect fill="#C0C0C0" stroke="none" x="295" y="262" width="185" height="120" opacity="0.2"></rect></g><g transform="translate(-130,-140) scale(1,1)"><rect fill="#ffffff" stroke="none" x="288" y="255" width="185" height="120"></rect></g><g transform="translate(-130,-140) scale(1,1)"><path fill="none" stroke="#000000" d="M 288 255 L 473 255 L 473 375 L 288 375 L 288 255 Z Z" stroke-miterlimit="10"></path></g><g transform="translate(-130,-140) scale(1,1)"><path fill="none" stroke="#000000" d="M 288 278 L 473 278" stroke-miterlimit="10"></path></g><g transform="translate(-130,-140) scale(1,1)"><path fill="none" stroke="#000000" d="M 298 278 L 298 375" stroke-miterlimit="10"></path></g><g transform="translate(-130,-140) scale(1,1)"><path fill="none" stroke="#000000" d="M 393 278 L 393 375" stroke-miterlimit="10"></path></g><g transform="translate(-130,-140) scale(1,1)"><g><path fill="none" stroke="none"></path><text fill="#000000" stroke="none" font-family="Arial" font-size="13px" font-style="normal" font-weight="bold" text-decoration="none" x="365.5" y="272.5">User</text></g></g><g transform="translate(-130,-140) scale(1,1)"><g><path fill="none" stroke="none"></path><text fill="#000000" stroke="none" font-family="Arial" font-size="13px" font-style="normal" font-weight="normal" text-decoration="none" x="293" y="296"></text></g></g><g transform="translate(-130,-140) scale(1,1)"><g><path fill="none" stroke="none"></path><text fill="#000000" stroke="none" font-family="Arial" font-size="13px" font-style="normal" font-weight="normal" text-decoration="none" x="303" y="296">username</text></g></g><g transform="translate(-130,-140) scale(1,1)"><g><path fill="none" stroke="none"></path><text fill="#000000" stroke="none" font-family="Arial" font-size="13px" font-style="normal" font-weight="normal" text-decoration="none" x="398" y="296">VARCHAR</text></g></g><g transform="translate(-130,-140) scale(1,1)"><g><path fill="none" stroke="none"></path><text fill="#000000" stroke="none" font-family="Arial" font-size="13px" font-style="normal" font-weight="normal" text-decoration="none" x="293" y="311"></text></g></g><g transform="translate(-130,-140) scale(1,1)"><g><path fill="none" stroke="none"></path><text fill="#000000" stroke="none" font-family="Arial" font-size="13px" font-style="normal" font-weight="normal" text-decoration="none" x="303" y="311">email</text></g></g><g transform="translate(-130,-140) scale(1,1)"><g><path fill="none" stroke="none"></path><text fill="#000000" stroke="none" font-family="Arial" font-size="13px" font-style="normal" font-weight="normal" text-decoration="none" x="398" y="311">VARCHAR</text></g></g><g transform="translate(-130,-140) scale(1,1)"><g><path fill="none" stroke="none"></path><text fill="#000000" stroke="none" font-family="Arial" font-size="13px" font-style="normal" font-weight="normal" text-decoration="none" x="293" y="326"></text></g></g><g transform="translate(-130,-140) scale(1,1)"><g><path fill="none" stroke="none"></path><text fill="#000000" stroke="none" font-family="Arial" font-size="13px" font-style="normal" font-weight="normal" text-decoration="none" x="303" y="326">name</text></g></g><g transform="translate(-130,-140) scale(1,1)"><g><path fill="none" stroke="none"></path><text fill="#000000" stroke="none" font-family="Arial" font-size="13px" font-style="normal" font-weight="normal" text-decoration="none" x="398" y="326">VARCHAR</text></g></g><g transform="translate(-130,-140) scale(1,1)"><g><path fill="none" stroke="none"></path><text fill="#000000" stroke="none" font-family="Arial" font-size="13px" font-style="normal" font-weight="normal" text-decoration="none" x="293" y="341"></text></g></g><g transform="translate(-130,-140) scale(1,1)"><g><path fill="none" stroke="none"></path><text fill="#000000" stroke="none" font-family="Arial" font-size="13px" font-style="normal" font-weight="normal" text-decoration="none" x="303" y="341">biography</text></g></g><g transform="translate(-130,-140) scale(1,1)"><g><path fill="none" stroke="none"></path><text fill="#000000" stroke="none" font-family="Arial" font-size="13px" font-style="normal" font-weight="normal" text-decoration="none" x="398" y="341">TEXT</text></g></g><g transform="translate(-130,-140) scale(1,1)"><g><path fill="none" stroke="none"></path><text fill="#000000" stroke="none" font-family="Arial" font-size="13px" font-style="normal" font-weight="normal" text-decoration="none" x="293" y="356"></text></g></g><g transform="translate(-130,-140) scale(1,1)"><g><path fill="none" stroke="none"></path><text fill="#000000" stroke="none" font-family="Arial" font-size="13px" font-style="normal" font-weight="normal" text-decoration="none" x="303" y="356">created_at</text></g></g><g transform="translate(-130,-140) scale(1,1)"><g><path fill="none" stroke="none"></path><text fill="#000000" stroke="none" font-family="Arial" font-size="13px" font-style="normal" font-weight="normal" text-decoration="none" x="398" y="356">TIME</text></g></g><g transform="translate(-130,-140) scale(1,1)"><g><path fill="none" stroke="none"></path><text fill="#000000" stroke="none" font-family="Arial" font-size="13px" font-style="normal" font-weight="normal" text-decoration="none" x="293" y="371"></text></g></g><g transform="translate(-130,-140) scale(1,1)"><g><path fill="none" stroke="none"></path><text fill="#000000" stroke="none" font-family="Arial" font-size="13px" font-style="normal" font-weight="normal" text-decoration="none" x="303" y="371">updated_at</text></g></g><g transform="translate(-130,-140) scale(1,1)"><g><path fill="none" stroke="none"></path><text fill="#000000" stroke="none" font-family="Arial" font-size="13px" font-style="normal" font-weight="normal" text-decoration="none" x="398" y="371">TIME</text></g></g><g transform="translate(-130,-140) scale(1,1)"><rect fill="#C0C0C0" stroke="none" x="317" y="491" width="141" height="45" opacity="0.2"></rect></g><g transform="translate(-130,-140) scale(1,1)"><rect fill="#ffffff" stroke="none" x="310" y="484" width="141" height="45"></rect></g><g transform="translate(-130,-140) scale(1,1)"><path fill="none" stroke="#000000" d="M 310 484 L 451 484 L 451 529 L 310 529 L 310 484 Z Z" stroke-miterlimit="10"></path></g><g transform="translate(-130,-140) scale(1,1)"><path fill="none" stroke="#000000" d="M 310 507 L 451 507" stroke-miterlimit="10"></path></g><g transform="translate(-130,-140) scale(1,1)"><path fill="none" stroke="#000000" d="M 320 507 L 320 529" stroke-miterlimit="10"></path></g><g transform="translate(-130,-140) scale(1,1)"><path fill="none" stroke="#000000" d="M 371 507 L 371 529" stroke-miterlimit="10"></path></g><g transform="translate(-130,-140) scale(1,1)"><g><path fill="none" stroke="none"></path><text fill="#000000" stroke="none" font-family="Arial" font-size="13px" font-style="normal" font-weight="bold" text-decoration="none" x="363" y="501.5">Circle</text></g></g><g transform="translate(-130,-140) scale(1,1)"><g><path fill="none" stroke="none"></path><text fill="#000000" stroke="none" font-family="Arial" font-size="13px" font-style="normal" font-weight="normal" text-decoration="none" x="315" y="525"></text></g></g><g transform="translate(-130,-140) scale(1,1)"><g><path fill="none" stroke="none"></path><text fill="#000000" stroke="none" font-family="Arial" font-size="13px" font-style="normal" font-weight="normal" text-decoration="none" x="325" y="525">name</text></g></g><g transform="translate(-130,-140) scale(1,1)"><g><path fill="none" stroke="none"></path><text fill="#000000" stroke="none" font-family="Arial" font-size="13px" font-style="normal" font-weight="normal" text-decoration="none" x="376" y="525">VARCHAR</text></g></g><g transform="translate(-130,-140) scale(1,1)"><rect fill="#C0C0C0" stroke="none" x="631" y="300" width="168" height="45" opacity="0.2"></rect></g><g transform="translate(-130,-140) scale(1,1)"><rect fill="#ffffff" stroke="none" x="624" y="293" width="168" height="45"></rect></g><g transform="translate(-130,-140) scale(1,1)"><path fill="none" stroke="#000000" d="M 624 293 L 792 293 L 792 338 L 624 338 L 624 293 Z Z" stroke-miterlimit="10"></path></g><g transform="translate(-130,-140) scale(1,1)"><path fill="none" stroke="#000000" d="M 624 316 L 792 316" stroke-miterlimit="10"></path></g><g transform="translate(-130,-140) scale(1,1)"><path fill="none" stroke="#000000" d="M 634 316 L 634 338" stroke-miterlimit="10"></path></g><g transform="translate(-130,-140) scale(1,1)"><path fill="none" stroke="#000000" d="M 673 316 L 673 338" stroke-miterlimit="10"></path></g><g transform="translate(-130,-140) scale(1,1)"><g><path fill="none" stroke="none"></path><text fill="#000000" stroke="none" font-family="Arial" font-size="13px" font-style="normal" font-weight="bold" text-decoration="none" x="694" y="310.5">Post</text></g></g><g transform="translate(-130,-140) scale(1,1)"><g><path fill="none" stroke="none"></path><text fill="#000000" stroke="none" font-family="Arial" font-size="13px" font-style="normal" font-weight="normal" text-decoration="none" x="629" y="334"></text></g></g><g transform="translate(-130,-140) scale(1,1)"><g><path fill="none" stroke="none"></path><text fill="#000000" stroke="none" font-family="Arial" font-size="13px" font-style="normal" font-weight="normal" text-decoration="none" x="639" y="334">text</text></g></g><g transform="translate(-130,-140) scale(1,1)"><g><path fill="none" stroke="none"></path><text fill="#000000" stroke="none" font-family="Arial" font-size="13px" font-style="normal" font-weight="normal" text-decoration="none" x="678" y="334">VARCHAR(255)</text></g></g><g transform="translate(-130,-140) scale(1,1)"><path fill="none" stroke="#000000" d="M 473 315 L 624 315" stroke-miterlimit="10"></path></g><g transform="translate(-130,-140) scale(1,1)"><path fill="none" stroke="#000000" d="M 610 315 L 624 322" stroke-miterlimit="10"></path></g><g transform="translate(-130,-140) scale(1,1)"><path fill="none" stroke="#000000" d="M 610 315 L 624 308" stroke-miterlimit="10"></path></g><g transform="translate(-130,-140) scale(1,1)"><path fill="#FFFFFF" stroke="none" d="M 595 315 C 595 311.1340064 598.1340064 308 602 308 C 605.8659936 308 609 311.1340064 609 315 C 609 318.8659936 605.8659936 322 602 322 C 598.1340064 322 595 318.8659936 595 315 Z"></path></g><g transform="translate(-130,-140) scale(1,1)"><path fill="none" stroke="#000000" d="M 595 315 C 595 311.1340064 598.1340064 308 602 308 C 605.8659936 308 609 311.1340064 609 315 C 609 318.8659936 605.8659936 322 602 322 C 598.1340064 322 595 318.8659936 595 315 Z" stroke-miterlimit="10"></path></g><g transform="translate(-130,-140) scale(1,1)"><path fill="none" stroke="#000000" d="M 480 308 L 480 322" stroke-miterlimit="10"></path></g><g transform="translate(-130,-140) scale(1,1)"><g><path fill="none" stroke="none"></path><text fill="#000000" stroke="none" font-family="Arial" font-size="13px" font-style="normal" font-weight="normal" text-decoration="none" x="481" y="307">posts</text></g></g><g transform="translate(-130,-140) scale(1,1)"><g><path fill="none" stroke="none"></path><text fill="#000000" stroke="none" font-family="Arial" font-size="13px" font-style="normal" font-weight="normal" text-decoration="none" x="598" y="307"></text></g></g><g transform="translate(-130,-140) scale(1,1)"><path fill="none" stroke="#000000" d="M 428 375 L 428 484" stroke-miterlimit="10"></path></g><g transform="translate(-130,-140) scale(1,1)"><path fill="none" stroke="#000000" d="M 428 470 L 421 484" stroke-miterlimit="10"></path></g><g transform="translate(-130,-140) scale(1,1)"><path fill="none" stroke="#000000" d="M 428 470 L 435 484" stroke-miterlimit="10"></path></g><g transform="translate(-130,-140) scale(1,1)"><path fill="#FFFFFF" stroke="none" d="M 421 462 C 421 458.1340064 424.1340064 455 428 455 C 431.8659936 455 435 458.1340064 435 462 C 435 465.8659936 431.8659936 469 428 469 C 424.1340064 469 421 465.8659936 421 462 Z"></path></g><g transform="translate(-130,-140) scale(1,1)"><path fill="none" stroke="#000000" d="M 421 462 C 421 458.1340064 424.1340064 455 428 455 C 431.8659936 455 435 458.1340064 435 462 C 435 465.8659936 431.8659936 469 428 469 C 424.1340064 469 421 465.8659936 421 462 Z" stroke-miterlimit="10"></path></g><g transform="translate(-130,-140) scale(1,1)"><path fill="none" stroke="#000000" d="M 435 382 L 421 382" stroke-miterlimit="10"></path></g><g transform="translate(-130,-140) scale(1,1)"><g><path fill="none" stroke="none"></path><text fill="#000000" stroke="none" font-family="Arial" font-size="13px" font-style="normal" font-weight="normal" text-decoration="none" x="431" y="435">has</text></g></g><g transform="translate(-130,-140) scale(1,1)"><g><path fill="none" stroke="none"></path><text fill="#000000" stroke="none" font-family="Arial" font-size="13px" font-style="normal" font-weight="normal" text-decoration="none" x="443" y="407"></text></g></g><g transform="translate(-130,-140) scale(1,1)"><g><path fill="none" stroke="none"></path><text fill="#000000" stroke="none" font-family="Arial" font-size="13px" font-style="normal" font-weight="normal" text-decoration="none" x="443" y="465"></text></g></g><g transform="translate(-130,-140) scale(1,1)"><path fill="none" stroke="#000000" d="M 380 484 L 380 375" stroke-miterlimit="10"></path></g><g transform="translate(-130,-140) scale(1,1)"><path fill="none" stroke="#000000" d="M 380 389 L 387 375" stroke-miterlimit="10"></path></g><g transform="translate(-130,-140) scale(1,1)"><path fill="none" stroke="#000000" d="M 380 389 L 373 375" stroke-miterlimit="10"></path></g><g transform="translate(-130,-140) scale(1,1)"><path fill="#FFFFFF" stroke="none" d="M 373 397 C 373 393.1340064 376.1340064 390 380 390 C 383.8659936 390 387 393.1340064 387 397 C 387 400.8659936 383.8659936 404 380 404 C 376.1340064 404 373 400.8659936 373 397 Z"></path></g><g transform="translate(-130,-140) scale(1,1)"><path fill="none" stroke="#000000" d="M 373 397 C 373 393.1340064 376.1340064 390 380 390 C 383.8659936 390 387 393.1340064 387 397 C 387 400.8659936 383.8659936 404 380 404 C 376.1340064 404 373 400.8659936 373 397 Z" stroke-miterlimit="10"></path></g><g transform="translate(-130,-140) scale(1,1)"><path fill="none" stroke="#000000" d="M 373 477 L 387 477" stroke-miterlimit="10"></path></g><g transform="translate(-130,-140) scale(1,1)"><g><path fill="none" stroke="none"></path><text fill="#000000" stroke="none" font-family="Arial" font-size="13px" font-style="normal" font-weight="normal" text-decoration="none" x="365" y="465"></text></g></g><g transform="translate(-130,-140) scale(1,1)"><g><path fill="none" stroke="none"></path><text fill="#000000" stroke="none" font-family="Arial" font-size="13px" font-style="normal" font-weight="normal" text-decoration="none" x="331" y="437">groups</text></g></g><g transform="translate(-130,-140) scale(1,1)"><rect fill="#C0C0C0" stroke="none" x="919" y="295" width="100" height="45" opacity="0.2"></rect></g><g transform="translate(-130,-140) scale(1,1)"><rect fill="#ffffff" stroke="none" x="912" y="288" width="100" height="45"></rect></g><g transform="translate(-130,-140) scale(1,1)"><path fill="none" stroke="#000000" d="M 912 288 L 1012 288 L 1012 333 L 912 333 L 912 288 Z Z" stroke-miterlimit="10"></path></g><g transform="translate(-130,-140) scale(1,1)"><path fill="none" stroke="#000000" d="M 912 311 L 1012 311" stroke-miterlimit="10"></path></g><g transform="translate(-130,-140) scale(1,1)"><path fill="none" stroke="#000000" d="M 922 311 L 922 333" stroke-miterlimit="10"></path></g><g transform="translate(-130,-140) scale(1,1)"><path fill="none" stroke="#000000" d="M 1003 311 L 1003 333" stroke-miterlimit="10"></path></g><g transform="translate(-130,-140) scale(1,1)"><g><path fill="none" stroke="none"></path><text fill="#000000" stroke="none" font-family="Arial" font-size="13px" font-style="normal" font-weight="bold" text-decoration="none" x="943.5" y="305.5">Photo</text></g></g><g transform="translate(-130,-140) scale(1,1)"><g><path fill="none" stroke="none"></path><text fill="#000000" stroke="none" font-family="Arial" font-size="13px" font-style="normal" font-weight="normal" text-decoration="none" x="917" y="329"></text></g></g><g transform="translate(-130,-140) scale(1,1)"><g><path fill="none" stroke="none"></path><text fill="#000000" stroke="none" font-family="Arial" font-size="13px" font-style="normal" font-weight="normal" text-decoration="none" x="927" y="329">file_name</text></g></g><g transform="translate(-130,-140) scale(1,1)"><g><path fill="none" stroke="none"></path><text fill="#000000" stroke="none" font-family="Arial" font-size="13px" font-style="normal" font-weight="normal" text-decoration="none" x="1008" y="329"></text></g></g><g transform="translate(-130,-140) scale(1,1)"><path fill="none" stroke="#000000" d="M 792 313 L 912 313" stroke-miterlimit="10"></path></g><g transform="translate(-130,-140) scale(1,1)"><path fill="none" stroke="#000000" d="M 905 320 L 905 306" stroke-miterlimit="10"></path></g><g transform="translate(-130,-140) scale(1,1)"><path fill="none" stroke="#000000" d="M 799 306 L 799 320" stroke-miterlimit="10"></path></g><g transform="translate(-130,-140) scale(1,1)"><g><path fill="none" stroke="none"></path><text fill="#000000" stroke="none" font-family="Arial" font-size="13px" font-style="normal" font-weight="normal" text-decoration="none" x="817" y="305"></text></g></g><g transform="translate(-130,-140) scale(1,1)"><g><path fill="none" stroke="none"></path><text fill="#000000" stroke="none" font-family="Arial" font-size="13px" font-style="normal" font-weight="normal" text-decoration="none" x="886" y="305"></text></g></g><g transform="translate(-130,-140) scale(1,1)"><rect fill="#C0C0C0" stroke="none" x="147" y="299" width="93" height="45" opacity="0.2"></rect></g><g transform="translate(-130,-140) scale(1,1)"><rect fill="#ffffff" stroke="none" x="140" y="292" width="93" height="45"></rect></g><g transform="translate(-130,-140) scale(1,1)"><path fill="none" stroke="#000000" d="M 140 292 L 233 292 L 233 337 L 140 337 L 140 292 Z Z" stroke-miterlimit="10"></path></g><g transform="translate(-130,-140) scale(1,1)"><path fill="none" stroke="#000000" d="M 140 315 L 233 315" stroke-miterlimit="10"></path></g><g transform="translate(-130,-140) scale(1,1)"><path fill="none" stroke="#000000" d="M 150 315 L 150 337" stroke-miterlimit="10"></path></g><g transform="translate(-130,-140) scale(1,1)"><path fill="none" stroke="#000000" d="M 201 315 L 201 337" stroke-miterlimit="10"></path></g><g transform="translate(-130,-140) scale(1,1)"><g><path fill="none" stroke="none"></path><text fill="#000000" stroke="none" font-family="Arial" font-size="13px" font-style="normal" font-weight="bold" text-decoration="none" x="175.5" y="309.5">List</text></g></g><g transform="translate(-130,-140) scale(1,1)"><g><path fill="none" stroke="none"></path><text fill="#000000" stroke="none" font-family="Arial" font-size="13px" font-style="normal" font-weight="normal" text-decoration="none" x="145" y="333"></text></g></g><g transform="translate(-130,-140) scale(1,1)"><g><path fill="none" stroke="none"></path><text fill="#000000" stroke="none" font-family="Arial" font-size="13px" font-style="normal" font-weight="normal" text-decoration="none" x="155" y="333">name</text></g></g><g transform="translate(-130,-140) scale(1,1)"><g><path fill="none" stroke="none"></path><text fill="#000000" stroke="none" font-family="Arial" font-size="13px" font-style="normal" font-weight="normal" text-decoration="none" x="206" y="333"></text></g></g><g transform="translate(-130,-140) scale(1,1)"><path fill="none" stroke="#000000" d="M 288 315 L 233 315" stroke-miterlimit="10"></path></g><g transform="translate(-130,-140) scale(1,1)"><path fill="none" stroke="#000000" d="M 247 315 L 233 308" stroke-miterlimit="10"></path></g><g transform="translate(-130,-140) scale(1,1)"><path fill="none" stroke="#000000" d="M 247 315 L 233 322" stroke-miterlimit="10"></path></g><g transform="translate(-130,-140) scale(1,1)"><path fill="#FFFFFF" stroke="none" d="M 248 315 C 248 311.1340064 251.1340064 308 255 308 C 258.8659936 308 262 311.1340064 262 315 C 262 318.8659936 258.8659936 322 255 322 C 251.1340064 322 248 318.8659936 248 315 Z"></path></g><g transform="translate(-130,-140) scale(1,1)"><path fill="none" stroke="#000000" d="M 248 315 C 248 311.1340064 251.1340064 308 255 308 C 258.8659936 308 262 311.1340064 262 315 C 262 318.8659936 258.8659936 322 255 322 C 251.1340064 322 248 318.8659936 248 315 Z" stroke-miterlimit="10"></path></g><g transform="translate(-130,-140) scale(1,1)"><path fill="none" stroke="#000000" d="M 281 322 L 281 308" stroke-miterlimit="10"></path></g><g transform="translate(-130,-140) scale(1,1)"><g><path fill="none" stroke="none"></path><text fill="#000000" stroke="none" font-family="Arial" font-size="13px" font-style="normal" font-weight="normal" text-decoration="none" x="262" y="336"></text></g></g><g transform="translate(-130,-140) scale(1,1)"><g><path fill="none" stroke="none"></path><text fill="#000000" stroke="none" font-family="Arial" font-size="13px" font-style="normal" font-weight="normal" text-decoration="none" x="258" y="336"></text></g></g></g></svg>