<svg version="1.1" xmlns="http://www.w3.org/2000/svg" xmlns:xlink="http://www.w3.org/1999/xlink" width="920" height="399"><defs></defs><g><g transform="translate(-102,-140) scale(1,1)"><rect fill="#C0C0C0" stroke="none" x="587" y="157" width="93" height="45" opacity="0.2"></rect></g><g transform="translate(-102,-140) scale(1,1)"><rect fill="#ffffff" stroke="none" x="580" y="150" width="93" height="45"></rect></g><g transform="translate(-102,-140) scale(1,1)"><path fill="none" stroke="#000000" d="M 580 150 L 673 150 L 673 195 L 580 195 L 580 150 Z Z" stroke-miterlimit="10"></path></g><g transform="translate(-102,-140) scale(1,1)"><path fill="none" stroke="#000000" d="M 580 173 L 673 173" stroke-miterlimit="10"></path></g><g transform="translate(-102,-140) scale(1,1)"><path fill="none" stroke="#000000" d="M 590 173 L 590 195" stroke-miterlimit="10"></path></g><g transform="translate(-102,-140) scale(1,1)"><path fill="none" stroke="#000000" d="M 641 173 L 641 195" stroke-miterlimit="10"></path></g><g transform="translate(-102,-140) scale(1,1)"><g><path fill="none" stroke="none"></path><text fill="#000000" stroke="none" font-family="Arial" font-size="13px" font-style="normal" font-weight="bold" text-decoration="none" x="599.5" y="167.5">Hashtag</text></g></g><g transform="translate(-102,-140) scale(1,1)"><g><path fill="none" stroke="none"></path><text fill="#000000" stroke="none" font-family="Arial" font-size="13px" font-style="normal" font-weight="normal" text-decoration="none" x="585" y="191"></text></g></g><g transform="translate(-102,-140) scale(1,1)"><g><path fill="none" stroke="none"></path><text fill="#000000" stroke="none" font-family="Arial" font-size="13px" font-style="normal" font-weight="normal" text-decoration="none" x="595" y="191">name</text></g></g><g transform="translate(-102,-140) scale(1,1)"><g><path fill="none" stroke="none"></path><text fill="#000000" stroke="none" font-family="Arial" font-size="13px" font-style="normal" font-weight="normal" text-decoration="none" x="646" y="191"></text></g></g><g transform="translate(-102,-140) scale(1,1)"><rect fill="#C0C0C0" stroke="none" x="743" y="157" width="102" height="45" opacity="0.2"></rect></g><g transform="translate(-102,-140) scale(1,1)"><rect fill="#ffffff" stroke="none" x="736" y="150" width="102" height="45"></rect></g><g transform="translate(-102,-140) scale(1,1)"><path fill="none" stroke="#000000" d="M 736 150 L 838 150 L 838 195 L 736 195 L 736 150 Z Z" stroke-miterlimit="10"></path></g><g transform="translate(-102,-140) scale(1,1)"><path fill="none" stroke="#000000" d="M 736 173 L 838 173" stroke-miterlimit="10"></path></g><g transform="translate(-102,-140) scale(1,1)"><path fill="none" stroke="#000000" d="M 746 173 L 746 195" stroke-miterlimit="10"></path></g><g transform="translate(-102,-140) scale(1,1)"><path fill="none" stroke="#000000" d="M 829 173 L 829 195" stroke-miterlimit="10"></path></g><g transform="translate(-102,-140) scale(1,1)"><g><path fill="none" stroke="none"></path><text fill="#000000" stroke="none" font-family="Arial" font-size="13px" font-style="normal" font-weight="bold" text-decoration="none" x="761.5" y="167.5">Mention</text></g></g><g transform="translate(-102,-140) scale(1,1)"><g><path fill="none" stroke="none"></path><text fill="#000000" stroke="none" font-family="Arial" font-size="13px" font-style="normal" font-weight="normal" text-decoration="none" x="741" y="191"></text></g></g><g transform="translate(-102,-140) scale(1,1)"><g><path fill="none" stroke="none"></path><text fill="#000000" stroke="none" font-family="Arial" font-size="13px" font-style="normal" font-weight="normal" text-decoration="none" x="751" y="191">username</text></g></g><g transform="translate(-102,-140) scale(1,1)"><g><path fill="none" stroke="none"></path><text fill="#000000" stroke="none" font-family="Arial" font-size="13px" font-style="normal" font-weight="normal" text-decoration="none" x="834" y="191"></text></g></g><g transform="translate(-102,-140) scale(1,1)"><path fill="none" stroke="#000000" d="M 630 257 L 630 195" stroke-miterlimit="10"></path></g><g transform="translate(-102,-140) scale(1,1)"><path fill="none" stroke="#000000" d="M 630 209 L 637 195" stroke-miterlimit="10"></path></g><g transform="translate(-102,-140) scale(1,1)"><path fill="none" stroke="#000000" d="M 630 209 L 623 195" stroke-miterlimit="10"></path></g><g transform="translate(-102,-140) scale(1,1)"><path fill="#FFFFFF" stroke="none" d="M 623 217 C 623 213.1340064 626.1340064 210 630 210 C 633.8659936 210 637 213.1340064 637 217 C 637 220.8659936 633.8659936 224 630 224 C 626.1340064 224 623 220.8659936 623 217 Z"></path></g><g transform="translate(-102,-140) scale(1,1)"><path fill="none" stroke="#000000" d="M 623 217 C 623 213.1340064 626.1340064 210 630 210 C 633.8659936 210 637 213.1340064 637 217 C 637 220.8659936 633.8659936 224 630 224 C 626.1340064 224 623 220.8659936 623 217 Z" stroke-miterlimit="10"></path></g><g transform="translate(-102,-140) scale(1,1)"><path fill="none" stroke="#000000" d="M 630 243 L 623 257" stroke-miterlimit="10"></path></g><g transform="translate(-102,-140) scale(1,1)"><path fill="none" stroke="#000000" d="M 630 243 L 637 257" stroke-miterlimit="10"></path></g><g transform="translate(-102,-140) scale(1,1)"><g><path fill="none" stroke="none"></path><text fill="#000000" stroke="none" font-family="Arial" font-size="13px" font-style="normal" font-weight="normal" text-decoration="none" x="615" y="238"></text></g></g><g transform="translate(-102,-140) scale(1,1)"><g><path fill="none" stroke="none"></path><text fill="#000000" stroke="none" font-family="Arial" font-size="13px" font-style="normal" font-weight="normal" text-decoration="none" x="615" y="227"></text></g></g><g transform="translate(-102,-140) scale(1,1)"><path fill="none" stroke="#000000" d="M 788 257 L 788 195" stroke-miterlimit="10"></path></g><g transform="translate(-102,-140) scale(1,1)"><path fill="none" stroke="#000000" d="M 788 209 L 795 195" stroke-miterlimit="10"></path></g><g transform="translate(-102,-140) scale(1,1)"><path fill="none" stroke="#000000" d="M 788 209 L 781 195" stroke-miterlimit="10"></path></g><g transform="translate(-102,-140) scale(1,1)"><path fill="#FFFFFF" stroke="none" d="M 781 217 C 781 213.1340064 784.1340064 210 788 210 C 791.8659936 210 795 213.1340064 795 217 C 795 220.8659936 791.8659936 224 788 224 C 784.1340064 224 781 220.8659936 781 217 Z"></path></g><g transform="translate(-102,-140) scale(1,1)"><path fill="none" stroke="#000000" d="M 781 217 C 781 213.1340064 784.1340064 210 788 210 C 791.8659936 210 795 213.1340064 795 217 C 795 220.8659936 791.8659936 224 788 224 C 784.1340064 224 781 220.8659936 781 217 Z" stroke-miterlimit="10"></path></g><g transform="translate(-102,-140) scale(1,1)"><path fill="none" stroke="#000000" d="M 788 243 L 781 257" stroke-miterlimit="10"></path></g><g transform="translate(-102,-140) scale(1,1)"><path fill="none" stroke="#000000" d="M 788 243 L 795 257" stroke-miterlimit="10"></path></g><g transform="translate(-102,-140) scale(1,1)"><g><path fill="none" stroke="none"></path><text fill="#000000" stroke="none" font-family="Arial" font-size="13px" font-style="normal" font-weight="normal" text-decoration="none" x="773" y="238"></text></g></g><g transform="translate(-102,-140) scale(1,1)"><g><path fill="none" stroke="none"></path><text fill="#000000" stroke="none" font-family="Arial" font-size="13px" font-style="normal" font-weight="normal" text-decoration="none" x="773" y="227"></text></g></g><g transform="translate(-102,-140) scale(1,1)"><rect fill="#C0C0C0" stroke="none" x="295" y="262" width="185" height="120" opacity="0.2"></rect></g><g transform="translate(-102,-140) scale(1,1)"><rect fill="#ffffff" stroke="none" x="288" y="255" width="185" height="120"></rect></g><g transform="translate(-102,-140) scale(1,1)"><path fill="none" stroke="#000000" d="M 288 255 L 473 255 L 473 375 L 288 375 L 288 255 Z Z" stroke-miterlimit="10"></path></g><g transform="translate(-102,-140) scale(1,1)"><path fill="none" stroke="#000000" d="M 288 278 L 473 278" stroke-miterlimit="10"></path></g><g transform="translate(-102,-140) scale(1,1)"><path fill="none" stroke="#000000" d="M 298 278 L 298 375" stroke-miterlimit="10"></path></g><g transform="translate(-102,-140) scale(1,1)"><path fill="none" stroke="#000000" d="M 383 278 L 383 375" stroke-miterlimit="10"></path></g><g transform="translate(-102,-140) scale(1,1)"><g><path fill="none" stroke="none"></path><text fill="#000000" stroke="none" font-family="Arial" font-size="13px" font-style="normal" font-weight="bold" text-decoration="none" x="365.5" y="272.5">User</text></g></g><g transform="translate(-102,-140) scale(1,1)"><g><path fill="none" stroke="none"></path><text fill="#000000" stroke="none" font-family="Arial" font-size="13px" font-style="normal" font-weight="normal" text-decoration="none" x="293" y="296"></text></g></g><g transform="translate(-102,-140) scale(1,1)"><g><path fill="none" stroke="none"></path><text fill="#000000" stroke="none" font-family="Arial" font-size="13px" font-style="normal" font-weight="normal" text-decoration="none" x="303" y="296">username</text></g></g><g transform="translate(-102,-140) scale(1,1)"><g><path fill="none" stroke="none"></path><text fill="#000000" stroke="none" font-family="Arial" font-size="13px" font-style="normal" font-weight="normal" text-decoration="none" x="388" y="296">VARCHAR</text></g></g><g transform="translate(-102,-140) scale(1,1)"><g><path fill="none" stroke="none"></path><text fill="#000000" stroke="none" font-family="Arial" font-size="13px" font-style="normal" font-weight="normal" text-decoration="none" x="293" y="311"></text></g></g><g transform="translate(-102,-140) scale(1,1)"><g><path fill="none" stroke="none"></path><text fill="#000000" stroke="none" font-family="Arial" font-size="13px" font-style="normal" font-weight="normal" text-decoration="none" x="303" y="311">email</text></g></g><g transform="translate(-102,-140) scale(1,1)"><g><path fill="none" stroke="none"></path><text fill="#000000" stroke="none" font-family="Arial" font-size="13px" font-style="normal" font-weight="normal" text-decoration="none" x="388" y="311">VARCHAR</text></g></g><g transform="translate(-102,-140) scale(1,1)"><g><path fill="none" stroke="none"></path><text fill="#000000" stroke="none" font-family="Arial" font-size="13px" font-style="normal" font-weight="normal" text-decoration="none" x="293" y="326"></text></g></g><g transform="translate(-102,-140) scale(1,1)"><g><path fill="none" stroke="none"></path><text fill="#000000" stroke="none" font-family="Arial" font-size="13px" font-style="normal" font-weight="normal" text-decoration="none" x="303" y="326">password</text></g></g><g transform="translate(-102,-140) scale(1,1)"><g><path fill="none" stroke="none"></path><text fill="#000000" stroke="none" font-family="Arial" font-size="13px" font-style="normal" font-weight="normal" text-decoration="none" x="388" y="326">VARCHAR</text></g></g><g transform="translate(-102,-140) scale(1,1)"><g><path fill="none" stroke="none"></path><text fill="#000000" stroke="none" font-family="Arial" font-size="13px" font-style="normal" font-weight="normal" text-decoration="none" x="293" y="341"></text></g></g><g transform="translate(-102,-140) scale(1,1)"><g><path fill="none" stroke="none"></path><text fill="#000000" stroke="none" font-family="Arial" font-size="13px" font-style="normal" font-weight="normal" text-decoration="none" x="303" y="341">name</text></g></g><g transform="translate(-102,-140) scale(1,1)"><g><path fill="none" stroke="none"></path><text fill="#000000" stroke="none" font-family="Arial" font-size="13px" font-style="normal" font-weight="normal" text-decoration="none" x="388" y="341">VARCHAR</text></g></g><g transform="translate(-102,-140) scale(1,1)"><g><path fill="none" stroke="none"></path><text fill="#000000" stroke="none" font-family="Arial" font-size="13px" font-style="normal" font-weight="normal" text-decoration="none" x="293" y="356"></text></g></g><g transform="translate(-102,-140) scale(1,1)"><g><path fill="none" stroke="none"></path><text fill="#000000" stroke="none" font-family="Arial" font-size="13px" font-style="normal" font-weight="normal" text-decoration="none" x="303" y="356">biography</text></g></g><g transform="translate(-102,-140) scale(1,1)"><g><path fill="none" stroke="none"></path><text fill="#000000" stroke="none" font-family="Arial" font-size="13px" font-style="normal" font-weight="normal" text-decoration="none" x="388" y="356">TEXT</text></g></g><g transform="translate(-102,-140) scale(1,1)"><rect fill="#C0C0C0" stroke="none" x="317" y="491" width="141" height="45" opacity="0.2"></rect></g><g transform="translate(-102,-140) scale(1,1)"><rect fill="#ffffff" stroke="none" x="310" y="484" width="141" height="45"></rect></g><g transform="translate(-102,-140) scale(1,1)"><path fill="none" stroke="#000000" d="M 310 484 L 451 484 L 451 529 L 310 529 L 310 484 Z Z" stroke-miterlimit="10"></path></g><g transform="translate(-102,-140) scale(1,1)"><path fill="none" stroke="#000000" d="M 310 507 L 451 507" stroke-miterlimit="10"></path></g><g transform="translate(-102,-140) scale(1,1)"><path fill="none" stroke="#000000" d="M 320 507 L 320 529" stroke-miterlimit="10"></path></g><g transform="translate(-102,-140) scale(1,1)"><path fill="none" stroke="#000000" d="M 371 507 L 371 529" stroke-miterlimit="10"></path></g><g transform="translate(-102,-140) scale(1,1)"><g><path fill="none" stroke="none"></path><text fill="#000000" stroke="none" font-family="Arial" font-size="13px" font-style="normal" font-weight="bold" text-decoration="none" x="363" y="501.5">Circle</text></g></g><g transform="translate(-102,-140) scale(1,1)"><g><path fill="none" stroke="none"></path><text fill="#000000" stroke="none" font-family="Arial" font-size="13px" font-style="normal" font-weight="normal" text-decoration="none" x="315" y="525"></text></g></g><g transform="translate(-102,-140) scale(1,1)"><g><path fill="none" stroke="none"></path><text fill="#000000" stroke="none" font-family="Arial" font-size="13px" font-style="normal" font-weight="normal" text-decoration="none" x="325" y="525">name</text></g></g><g transform="translate(-102,-140) scale(1,1)"><g><path fill="none" stroke="none"></path><text fill="#000000" stroke="none" font-family="Arial" font-size="13px" font-style="normal" font-weight="normal" text-decoration="none" x="376" y="525">VARCHAR</text></g></g><g transform="translate(-102,-140) scale(1,1)"><rect fill="#C0C0C0" stroke="none" x="631" y="264" width="168" height="116" opacity="0.2"></rect></g><g transform="translate(-102,-140) scale(1,1)"><rect fill="#ffffff" stroke="none" x="624" y="257" width="168" height="116"></rect></g><g transform="translate(-102,-140) scale(1,1)"><path fill="none" stroke="#000000" d="M 624 257 L 792 257 L 792 373 L 624 373 L 624 257 Z Z" stroke-miterlimit="10"></path></g><g transform="translate(-102,-140) scale(1,1)"><path fill="none" stroke="#000000" d="M 624 280 L 792 280" stroke-miterlimit="10"></path></g><g transform="translate(-102,-140) scale(1,1)"><path fill="none" stroke="#000000" d="M 634 280 L 634 373" stroke-miterlimit="10"></path></g><g transform="translate(-102,-140) scale(1,1)"><path fill="none" stroke="#000000" d="M 673 280 L 673 373" stroke-miterlimit="10"></path></g><g transform="translate(-102,-140) scale(1,1)"><g><path fill="none" stroke="none"></path><text fill="#000000" stroke="none" font-family="Arial" font-size="13px" font-style="normal" font-weight="bold" text-decoration="none" x="694" y="274.5">Post</text></g></g><g transform="translate(-102,-140) scale(1,1)"><g><path fill="none" stroke="none"></path><text fill="#000000" stroke="none" font-family="Arial" font-size="13px" font-style="normal" font-weight="normal" text-decoration="none" x="629" y="298"></text></g></g><g transform="translate(-102,-140) scale(1,1)"><g><path fill="none" stroke="none"></path><text fill="#000000" stroke="none" font-family="Arial" font-size="13px" font-style="normal" font-weight="normal" text-decoration="none" x="639" y="298">text</text></g></g><g transform="translate(-102,-140) scale(1,1)"><g><path fill="none" stroke="none"></path><text fill="#000000" stroke="none" font-family="Arial" font-size="13px" font-style="normal" font-weight="normal" text-decoration="none" x="678" y="298">VARCHAR(255)</text></g></g><g transform="translate(-102,-140) scale(1,1)"><path fill="none" stroke="#000000" d="M 473 315 L 624 315" stroke-miterlimit="10"></path></g><g transform="translate(-102,-140) scale(1,1)"><path fill="none" stroke="#000000" d="M 610 315 L 624 322" stroke-miterlimit="10"></path></g><g transform="translate(-102,-140) scale(1,1)"><path fill="none" stroke="#000000" d="M 610 315 L 624 308" stroke-miterlimit="10"></path></g><g transform="translate(-102,-140) scale(1,1)"><path fill="#FFFFFF" stroke="none" d="M 595 315 C 595 311.1340064 598.1340064 308 602 308 C 605.8659936 308 609 311.1340064 609 315 C 609 318.8659936 605.8659936 322 602 322 C 598.1340064 322 595 318.8659936 595 315 Z"></path></g><g transform="translate(-102,-140) scale(1,1)"><path fill="none" stroke="#000000" d="M 595 315 C 595 311.1340064 598.1340064 308 602 308 C 605.8659936 308 609 311.1340064 609 315 C 609 318.8659936 605.8659936 322 602 322 C 598.1340064 322 595 318.8659936 595 315 Z" stroke-miterlimit="10"></path></g><g transform="translate(-102,-140) scale(1,1)"><path fill="none" stroke="#000000" d="M 480 308 L 480 322" stroke-miterlimit="10"></path></g><g transform="translate(-102,-140) scale(1,1)"><g><path fill="none" stroke="none"></path><text fill="#000000" stroke="none" font-family="Arial" font-size="13px" font-style="normal" font-weight="normal" text-decoration="none" x="530" y="309">writes</text></g></g><g transform="translate(-102,-140) scale(1,1)"><g><path fill="none" stroke="none"></path><text fill="#000000" stroke="none" font-family="Arial" font-size="13px" font-style="normal" font-weight="normal" text-decoration="none" x="598" y="307"></text></g></g><g transform="translate(-102,-140) scale(1,1)"><path fill="none" stroke="#000000" d="M 416 375 L 416 484" stroke-miterlimit="10"></path></g><g transform="translate(-102,-140) scale(1,1)"><path fill="none" stroke="#000000" d="M 416 470 L 409 484" stroke-miterlimit="10"></path></g><g transform="translate(-102,-140) scale(1,1)"><path fill="none" stroke="#000000" d="M 416 470 L 423 484" stroke-miterlimit="10"></path></g><g transform="translate(-102,-140) scale(1,1)"><path fill="none" stroke="#000000" d="M 423 382 L 409 382" stroke-miterlimit="10"></path></g><g transform="translate(-102,-140) scale(1,1)"><g><path fill="none" stroke="none"></path><text fill="#000000" stroke="none" font-family="Arial" font-size="13px" font-style="normal" font-weight="normal" text-decoration="none" x="419" y="435">has</text></g></g><g transform="translate(-102,-140) scale(1,1)"><g><path fill="none" stroke="none"></path><text fill="#000000" stroke="none" font-family="Arial" font-size="13px" font-style="normal" font-weight="normal" text-decoration="none" x="431" y="407"></text></g></g><g transform="translate(-102,-140) scale(1,1)"><g><path fill="none" stroke="none"></path><text fill="#000000" stroke="none" font-family="Arial" font-size="13px" font-style="normal" font-weight="normal" text-decoration="none" x="431" y="465"></text></g></g><g transform="translate(-102,-140) scale(1,1)"><path fill="none" stroke="#000000" d="M 352 484 L 352 375" stroke-miterlimit="10"></path></g><g transform="translate(-102,-140) scale(1,1)"><path fill="none" stroke="#000000" d="M 352 389 L 359 375" stroke-miterlimit="10"></path></g><g transform="translate(-102,-140) scale(1,1)"><path fill="none" stroke="#000000" d="M 352 389 L 345 375" stroke-miterlimit="10"></path></g><g transform="translate(-102,-140) scale(1,1)"><path fill="#FFFFFF" stroke="none" d="M 345 397 C 345 393.1340064 348.1340064 390 352 390 C 355.8659936 390 359 393.1340064 359 397 C 359 400.8659936 355.8659936 404 352 404 C 348.1340064 404 345 400.8659936 345 397 Z"></path></g><g transform="translate(-102,-140) scale(1,1)"><path fill="none" stroke="#000000" d="M 345 397 C 345 393.1340064 348.1340064 390 352 390 C 355.8659936 390 359 393.1340064 359 397 C 359 400.8659936 355.8659936 404 352 404 C 348.1340064 404 345 400.8659936 345 397 Z" stroke-miterlimit="10"></path></g><g transform="translate(-102,-140) scale(1,1)"><path fill="none" stroke="#000000" d="M 352 470 L 345 484" stroke-miterlimit="10"></path></g><g transform="translate(-102,-140) scale(1,1)"><path fill="none" stroke="#000000" d="M 352 470 L 359 484" stroke-miterlimit="10"></path></g><g transform="translate(-102,-140) scale(1,1)"><g><path fill="none" stroke="none"></path><text fill="#000000" stroke="none" font-family="Arial" font-size="13px" font-style="normal" font-weight="normal" text-decoration="none" x="337" y="465"></text></g></g><g transform="translate(-102,-140) scale(1,1)"><g><path fill="none" stroke="none"></path><text fill="#000000" stroke="none" font-family="Arial" font-size="13px" font-style="normal" font-weight="normal" text-decoration="none" x="303" y="437">groups</text></g></g><g transform="translate(-102,-140) scale(1,1)"><rect fill="#C0C0C0" stroke="none" x="919" y="300" width="100" height="45" opacity="0.2"></rect></g><g transform="translate(-102,-140) scale(1,1)"><rect fill="#ffffff" stroke="none" x="912" y="293" width="100" height="45"></rect></g><g transform="translate(-102,-140) scale(1,1)"><path fill="none" stroke="#000000" d="M 912 293 L 1012 293 L 1012 338 L 912 338 L 912 293 Z Z" stroke-miterlimit="10"></path></g><g transform="translate(-102,-140) scale(1,1)"><path fill="none" stroke="#000000" d="M 912 316 L 1012 316" stroke-miterlimit="10"></path></g><g transform="translate(-102,-140) scale(1,1)"><path fill="none" stroke="#000000" d="M 922 316 L 922 338" stroke-miterlimit="10"></path></g><g transform="translate(-102,-140) scale(1,1)"><path fill="none" stroke="#000000" d="M 1003 316 L 1003 338" stroke-miterlimit="10"></path></g><g transform="translate(-102,-140) scale(1,1)"><g><path fill="none" stroke="none"></path><text fill="#000000" stroke="none" font-family="Arial" font-size="13px" font-style="normal" font-weight="bold" text-decoration="none" x="943.5" y="310.5">Photo</text></g></g><g transform="translate(-102,-140) scale(1,1)"><g><path fill="none" stroke="none"></path><text fill="#000000" stroke="none" font-family="Arial" font-size="13px" font-style="normal" font-weight="normal" text-decoration="none" x="917" y="334"></text></g></g><g transform="translate(-102,-140) scale(1,1)"><g><path fill="none" stroke="none"></path><text fill="#000000" stroke="none" font-family="Arial" font-size="13px" font-style="normal" font-weight="normal" text-decoration="none" x="927" y="334">file_name</text></g></g><g transform="translate(-102,-140) scale(1,1)"><g><path fill="none" stroke="none"></path><text fill="#000000" stroke="none" font-family="Arial" font-size="13px" font-style="normal" font-weight="normal" text-decoration="none" x="1008" y="334"></text></g></g><g transform="translate(-102,-140) scale(1,1)"><path fill="none" stroke="#000000" d="M 792 313 L 912 313" stroke-miterlimit="10"></path></g><g transform="translate(-102,-140) scale(1,1)"><path fill="#FFFFFF" stroke="none" d="M 883 313 C 883 309.1340064 886.1340064 306 890 306 C 893.8659936 306 897 309.1340064 897 313 C 897 316.8659936 893.8659936 320 890 320 C 886.1340064 320 883 316.8659936 883 313 Z"></path></g><g transform="translate(-102,-140) scale(1,1)"><path fill="none" stroke="#000000" d="M 883 313 C 883 309.1340064 886.1340064 306 890 306 C 893.8659936 306 897 309.1340064 897 313 C 897 316.8659936 893.8659936 320 890 320 C 886.1340064 320 883 316.8659936 883 313 Z" stroke-miterlimit="10"></path></g><g transform="translate(-102,-140) scale(1,1)"><path fill="none" stroke="#000000" d="M 905 320 L 905 306" stroke-miterlimit="10"></path></g><g transform="translate(-102,-140) scale(1,1)"><path fill="none" stroke="#000000" d="M 799 306 L 799 320" stroke-miterlimit="10"></path></g><g transform="translate(-102,-140) scale(1,1)"><g><path fill="none" stroke="none"></path><text fill="#000000" stroke="none" font-family="Arial" font-size="13px" font-style="normal" font-weight="normal" text-decoration="none" x="817" y="305"></text></g></g><g transform="translate(-102,-140) scale(1,1)"><g><path fill="none" stroke="none"></path><text fill="#000000" stroke="none" font-family="Arial" font-size="13px" font-style="normal" font-weight="normal" text-decoration="none" x="886" y="305"></text></g></g><g transform="translate(-102,-140) scale(1,1)"><rect fill="#C0C0C0" stroke="none" x="119" y="300" width="93" height="45" opacity="0.2"></rect></g><g transform="translate(-102,-140) scale(1,1)"><rect fill="#ffffff" stroke="none" x="112" y="293" width="93" height="45"></rect></g><g transform="translate(-102,-140) scale(1,1)"><path fill="none" stroke="#000000" d="M 112 293 L 205 293 L 205 338 L 112 338 L 112 293 Z Z" stroke-miterlimit="10"></path></g><g transform="translate(-102,-140) scale(1,1)"><path fill="none" stroke="#000000" d="M 112 316 L 205 316" stroke-miterlimit="10"></path></g><g transform="translate(-102,-140) scale(1,1)"><path fill="none" stroke="#000000" d="M 122 316 L 122 338" stroke-miterlimit="10"></path></g><g transform="translate(-102,-140) scale(1,1)"><path fill="none" stroke="#000000" d="M 173 316 L 173 338" stroke-miterlimit="10"></path></g><g transform="translate(-102,-140) scale(1,1)"><g><path fill="none" stroke="none"></path><text fill="#000000" stroke="none" font-family="Arial" font-size="13px" font-style="normal" font-weight="bold" text-decoration="none" x="147.5" y="310.5">List</text></g></g><g transform="translate(-102,-140) scale(1,1)"><g><path fill="none" stroke="none"></path><text fill="#000000" stroke="none" font-family="Arial" font-size="13px" font-style="normal" font-weight="normal" text-decoration="none" x="117" y="334"></text></g></g><g transform="translate(-102,-140) scale(1,1)"><g><path fill="none" stroke="none"></path><text fill="#000000" stroke="none" font-family="Arial" font-size="13px" font-style="normal" font-weight="normal" text-decoration="none" x="127" y="334">name</text></g></g><g transform="translate(-102,-140) scale(1,1)"><g><path fill="none" stroke="none"></path><text fill="#000000" stroke="none" font-family="Arial" font-size="13px" font-style="normal" font-weight="normal" text-decoration="none" x="178" y="334"></text></g></g><g transform="translate(-102,-140) scale(1,1)"><path fill="none" stroke="#000000" d="M 288 315 L 205 315" stroke-miterlimit="10"></path></g><g transform="translate(-102,-140) scale(1,1)"><path fill="none" stroke="#000000" d="M 219 315 L 205 308" stroke-miterlimit="10"></path></g><g transform="translate(-102,-140) scale(1,1)"><path fill="none" stroke="#000000" d="M 219 315 L 205 322" stroke-miterlimit="10"></path></g><g transform="translate(-102,-140) scale(1,1)"><path fill="none" stroke="#000000" d="M 281 322 L 281 308" stroke-miterlimit="10"></path></g><g transform="translate(-102,-140) scale(1,1)"><g><path fill="none" stroke="none"></path><text fill="#000000" stroke="none" font-family="Arial" font-size="13px" font-style="normal" font-weight="normal" text-decoration="none" x="262" y="336"></text></g></g><g transform="translate(-102,-140) scale(1,1)"><g><path fill="none" stroke="none"></path><text fill="#000000" stroke="none" font-family="Arial" font-size="13px" font-style="normal" font-weight="normal" text-decoration="none" x="230" y="336"></text></g></g><g transform="translate(-102,-140) scale(1,1)"><path fill="none" stroke="#000000" d="M 474 293 Q 548 276 623 294" stroke-miterlimit="10"></path></g><g transform="translate(-102,-140) scale(1,1)"><path fill="none" stroke="#000000" d="M 609.3865777722727 290.73277866534545 L 621.3663893326727 300.8067111138636" stroke-miterlimit="10"></path></g><g transform="translate(-102,-140) scale(1,1)"><path fill="none" stroke="#000000" d="M 609.3865777722727 290.73277866534545 L 624.6336106673273 287.1932888861364" stroke-miterlimit="10"></path></g><g transform="translate(-102,-140) scale(1,1)"><path fill="#FFFFFF" stroke="none" d="M 594.6074793564286 288.8657950455429 C 594.6074793564286 284.99980144554286 597.7414857564286 281.8657950455429 601.6074793564286 281.8657950455429 C 605.4734729564286 281.8657950455429 608.6074793564286 284.99980144554286 608.6074793564286 288.8657950455429 C 608.6074793564286 292.7317886455429 605.4734729564286 295.8657950455429 601.6074793564286 295.8657950455429 C 597.7414857564286 295.8657950455429 594.6074793564286 292.7317886455429 594.6074793564286 288.8657950455429 Z"></path></g><g transform="translate(-102,-140) scale(1,1)"><path fill="none" stroke="#000000" d="M 594.6074793564286 288.8657950455429 C 594.6074793564286 284.99980144554286 597.7414857564286 281.8657950455429 601.6074793564286 281.8657950455429 C 605.4734729564286 281.8657950455429 608.6074793564286 284.99980144554286 608.6074793564286 288.8657950455429 C 608.6074793564286 292.7317886455429 605.4734729564286 295.8657950455429 601.6074793564286 295.8657950455429 C 597.7414857564286 295.8657950455429 594.6074793564286 292.7317886455429 594.6074793564286 288.8657950455429 Z" stroke-miterlimit="10"></path></g><g transform="translate(-102,-140) scale(1,1)"><path fill="none" stroke="#000000" d="M 487.6445777252707 289.86543484689724 L 472.43271742344865 286.1777111373646" stroke-miterlimit="10"></path></g><g transform="translate(-102,-140) scale(1,1)"><path fill="none" stroke="#000000" d="M 487.6445777252707 289.86543484689724 L 475.56728257655135 299.8222888626354" stroke-miterlimit="10"></path></g><g transform="translate(-102,-140) scale(1,1)"><path fill="#FFFFFF" stroke="none" d="M 488.4414792825683 288.07425475941 C 488.4414792825683 284.20826115941 491.5754856825683 281.07425475941 495.4414792825683 281.07425475941 C 499.30747288256833 281.07425475941 502.4414792825683 284.20826115941 502.4414792825683 288.07425475941 C 502.4414792825683 291.94024835941 499.30747288256833 295.07425475941 495.4414792825683 295.07425475941 C 491.5754856825683 295.07425475941 488.4414792825683 291.94024835941 488.4414792825683 288.07425475941 Z"></path></g><g transform="translate(-102,-140) scale(1,1)"><path fill="none" stroke="#000000" d="M 488.4414792825683 288.07425475941 C 488.4414792825683 284.20826115941 491.5754856825683 281.07425475941 495.4414792825683 281.07425475941 C 499.30747288256833 281.07425475941 502.4414792825683 284.20826115941 502.4414792825683 288.07425475941 C 502.4414792825683 291.94024835941 499.30747288256833 295.07425475941 495.4414792825683 295.07425475941 C 491.5754856825683 295.07425475941 488.4414792825683 291.94024835941 488.4414792825683 288.07425475941 Z" stroke-miterlimit="10"></path></g><g transform="translate(-102,-140) scale(1,1)"><g><path fill="none" stroke="none"></path><text fill="#000000" stroke="none" font-family="Arial" font-size="13px" font-style="normal" font-weight="normal" text-decoration="none" x="524" y="268">favorites</text></g></g><g transform="translate(-102,-140) scale(1,1)"><g><path fill="none" stroke="none"></path><text fill="#000000" stroke="none" font-family="Arial" font-size="13px" font-style="normal" font-weight="normal" text-decoration="none" x="495" y="279"></text></g></g><g transform="translate(-102,-140) scale(1,1)"><g><path fill="none" stroke="none"></path><text fill="#000000" stroke="none" font-family="Arial" font-size="13px" font-style="normal" font-weight="normal" text-decoration="none" x="601" y="280"></text></g></g><g transform="translate(-102,-140) scale(1,1)"><path fill="none" stroke="#000000" d="M 474 333 Q 552 348 623 333" stroke-miterlimit="10"></path></g><g transform="translate(-102,-140) scale(1,1)"><path fill="none" stroke="#000000" d="M 609.3023534058583 335.89386899876234 L 624.4469344993812 339.84882329707085" stroke-miterlimit="10"></path></g><g transform="translate(-102,-140) scale(1,1)"><path fill="none" stroke="#000000" d="M 609.3023534058583 335.89386899876234 L 621.5530655006188 326.15117670292915" stroke-miterlimit="10"></path></g><g transform="translate(-102,-140) scale(1,1)"><path fill="#FFFFFF" stroke="none" d="M 594.4751267806345 337.5475084266265 C 594.4751267806345 333.6815148266265 597.6091331806344 330.5475084266265 601.4751267806345 330.5475084266265 C 605.3411203806345 330.5475084266265 608.4751267806345 333.6815148266265 608.4751267806345 337.5475084266265 C 608.4751267806345 341.41350202662653 605.3411203806345 344.5475084266265 601.4751267806345 344.5475084266265 C 597.6091331806344 344.5475084266265 594.4751267806345 341.41350202662653 594.4751267806345 337.5475084266265 Z"></path></g><g transform="translate(-102,-140) scale(1,1)"><path fill="none" stroke="#000000" d="M 594.4751267806345 337.5475084266265 C 594.4751267806345 333.6815148266265 597.6091331806344 330.5475084266265 601.4751267806345 330.5475084266265 C 605.3411203806345 330.5475084266265 608.4751267806345 333.6815148266265 608.4751267806345 337.5475084266265 C 608.4751267806345 341.41350202662653 605.3411203806345 344.5475084266265 601.4751267806345 344.5475084266265 C 597.6091331806344 344.5475084266265 594.4751267806345 341.41350202662653 594.4751267806345 337.5475084266265 Z" stroke-miterlimit="10"></path></g><g transform="translate(-102,-140) scale(1,1)"><path fill="none" stroke="#000000" d="M 487.7480902577291 335.64386351110176 L 475.32193175555085 326.1259548711355" stroke-miterlimit="10"></path></g><g transform="translate(-102,-140) scale(1,1)"><path fill="none" stroke="#000000" d="M 487.7480902577291 335.64386351110176 L 472.67806824444915 339.8740451288645" stroke-miterlimit="10"></path></g><g transform="translate(-102,-140) scale(1,1)"><path fill="#FFFFFF" stroke="none" d="M 488.60414183357426 337.1546426603027 C 488.60414183357426 333.2886490603027 491.73814823357424 330.1546426603027 495.60414183357426 330.1546426603027 C 499.4701354335743 330.1546426603027 502.60414183357426 333.2886490603027 502.60414183357426 337.1546426603027 C 502.60414183357426 341.02063626030275 499.4701354335743 344.1546426603027 495.60414183357426 344.1546426603027 C 491.73814823357424 344.1546426603027 488.60414183357426 341.02063626030275 488.60414183357426 337.1546426603027 Z"></path></g><g transform="translate(-102,-140) scale(1,1)"><path fill="none" stroke="#000000" d="M 488.60414183357426 337.1546426603027 C 488.60414183357426 333.2886490603027 491.73814823357424 330.1546426603027 495.60414183357426 330.1546426603027 C 499.4701354335743 330.1546426603027 502.60414183357426 333.2886490603027 502.60414183357426 337.1546426603027 C 502.60414183357426 341.02063626030275 499.4701354335743 344.1546426603027 495.60414183357426 344.1546426603027 C 491.73814823357424 344.1546426603027 488.60414183357426 341.02063626030275 488.60414183357426 337.1546426603027 Z" stroke-miterlimit="10"></path></g><g transform="translate(-102,-140) scale(1,1)"><g><path fill="none" stroke="none"></path><text fill="#000000" stroke="none" font-family="Arial" font-size="13px" font-style="normal" font-weight="normal" text-decoration="none" x="524" y="340">reposts</text></g></g><g transform="translate(-102,-140) scale(1,1)"><g><path fill="none" stroke="none"></path><text fill="#000000" stroke="none" font-family="Arial" font-size="13px" font-style="normal" font-weight="normal" text-decoration="none" x="502" y="330"></text></g></g><g transform="translate(-102,-140) scale(1,1)"><g><path fill="none" stroke="none"></path><text fill="#000000" stroke="none" font-family="Arial" font-size="13px" font-style="normal" font-weight="normal" text-decoration="none" x="594" y="330"></text></g></g></g></svg>