<svg version="1.1" xmlns="http://www.w3.org/2000/svg" xmlns:xlink="http://www.w3.org/1999/xlink" width="705" height="547"><defs></defs><g><g transform="translate(-86,-14) scale(1,1)"><rect fill="#C0C0C0" stroke="none" x="199" y="31" width="499" height="527" opacity="0.2"></rect></g><g transform="translate(-86,-14) scale(1,1)"><rect fill="#ffffff" stroke="none" x="192" y="24" width="499" height="527"></rect></g><g transform="translate(-86,-14) scale(1,1)"><path fill="none" stroke="#000000" d="M 192 24 L 691 24 L 691 551 L 192 551 L 192 24 Z Z" stroke-miterlimit="10"></path></g><g transform="translate(-86,-14) scale(1,1)"><g><path fill="none" stroke="none"></path><text fill="#000000" stroke="none" font-family="Arial" font-size="13px" font-style="normal" font-weight="bold" text-decoration="none" x="419" y="43.5">System</text></g></g><g transform="translate(-86,-14) scale(1,1)"><path fill="#ffffff" stroke="none" d="M 125.32072727272728 265.68 C 125.32072727272728 260.886167936 129.20656959767274 257 134 257 C 138.79343040232726 257 142.67927272727272 260.886167936 142.67927272727272 265.68 C 142.67927272727272 270.473832064 138.79343040232726 274.36 134 274.36 C 129.20656959767274 274.36 125.32072727272728 270.473832064 125.32072727272728 265.68 Z"></path></g><g transform="translate(-86,-14) scale(1,1)"><path fill="none" stroke="#000000" d="M 125.32072727272728 265.68 C 125.32072727272728 260.886167936 129.20656959767274 257 134 257 C 138.79343040232726 257 142.67927272727272 260.886167936 142.67927272727272 265.68 C 142.67927272727272 270.473832064 138.79343040232726 274.36 134 274.36 C 129.20656959767274 274.36 125.32072727272728 270.473832064 125.32072727272728 265.68 Z" stroke-miterlimit="10"></path></g><g transform="translate(-86,-14) scale(1,1)"><path fill="none" stroke="#000000" d="M 134 274.36 L 134 291.64" stroke-miterlimit="10"></path></g><g transform="translate(-86,-14) scale(1,1)"><path fill="none" stroke="#000000" d="M 124.81018181818183 280.84 L 143.18981818181817 280.84" stroke-miterlimit="10"></path></g><g transform="translate(-86,-14) scale(1,1)"><path fill="none" stroke="#000000" d="M 134 291.64 L 121.23636363636365 309" stroke-miterlimit="10"></path></g><g transform="translate(-86,-14) scale(1,1)"><path fill="none" stroke="#000000" d="M 134 291.64 L 146.76363636363635 309" stroke-miterlimit="10"></path></g><g transform="translate(-86,-14) scale(1,1)"><g><path fill="none" stroke="none"></path><text fill="#000000" stroke="none" font-family="Arial" font-size="13px" font-style="normal" font-weight="bold" text-decoration="none" x="116" y="329.5">author</text></g></g><g transform="translate(-86,-14) scale(1,1)"><path fill="#C0C0C0" stroke="none" d="M 319 104 C 319 94.6111584 341.8334752 87 370 87 C 398.1665248 87 421 94.6111584 421 104 C 421 113.3888416 398.1665248 121 370 121 C 341.8334752 121 319 113.3888416 319 104 Z" opacity="0.2"></path></g><g transform="translate(-86,-14) scale(1,1)"><path fill="#ffffff" stroke="none" d="M 312 97 C 312 87.6111584 334.8334752 80 363 80 C 391.1665248 80 414 87.6111584 414 97 C 414 106.3888416 391.1665248 114 363 114 C 334.8334752 114 312 106.3888416 312 97 Z"></path></g><g transform="translate(-86,-14) scale(1,1)"><path fill="none" stroke="#000000" d="M 312 97 C 312 87.6111584 334.8334752 80 363 80 C 391.1665248 80 414 87.6111584 414 97 C 414 106.3888416 391.1665248 114 363 114 C 334.8334752 114 312 106.3888416 312 97 Z" stroke-miterlimit="10"></path></g><g transform="translate(-86,-14) scale(1,1)"><g><path fill="none" stroke="none"></path><text fill="#000000" stroke="none" font-family="Arial" font-size="13px" font-style="normal" font-weight="bold" text-decoration="none" x="350.5" y="104">post</text></g></g><g transform="translate(-86,-14) scale(1,1)"><path fill="none" stroke="#000000" d="M 173 261 L 342 115" stroke-miterlimit="10"></path></g><g transform="translate(-86,-14) scale(1,1)"><path fill="#C0C0C0" stroke="none" d="M 305 236 C 305 226.6111584 334.3253456 219 370.5 219 C 406.6746544 219 436 226.6111584 436 236 C 436 245.3888416 406.6746544 253 370.5 253 C 334.3253456 253 305 245.3888416 305 236 Z" opacity="0.2"></path></g><g transform="translate(-86,-14) scale(1,1)"><path fill="#ffffff" stroke="none" d="M 298 229 C 298 219.6111584 327.3253456 212 363.5 212 C 399.6746544 212 429 219.6111584 429 229 C 429 238.3888416 399.6746544 246 363.5 246 C 327.3253456 246 298 238.3888416 298 229 Z"></path></g><g transform="translate(-86,-14) scale(1,1)"><path fill="none" stroke="#000000" d="M 298 229 C 298 219.6111584 327.3253456 212 363.5 212 C 399.6746544 212 429 219.6111584 429 229 C 429 238.3888416 399.6746544 246 363.5 246 C 327.3253456 246 298 238.3888416 298 229 Z" stroke-miterlimit="10"></path></g><g transform="translate(-86,-14) scale(1,1)"><g><path fill="none" stroke="none"></path><text fill="#000000" stroke="none" font-family="Arial" font-size="13px" font-style="normal" font-weight="bold" text-decoration="none" x="338.5" y="236">edit post</text></g></g><g transform="translate(-86,-14) scale(1,1)"><path fill="#C0C0C0" stroke="none" d="M 295 444 C 295 434.6111584 328.8024976 427 370.5 427 C 412.1975024 427 446 434.6111584 446 444 C 446 453.3888416 412.1975024 461 370.5 461 C 328.8024976 461 295 453.3888416 295 444 Z" opacity="0.2"></path></g><g transform="translate(-86,-14) scale(1,1)"><path fill="#ffffff" stroke="none" d="M 288 437 C 288 427.6111584 321.8024976 420 363.5 420 C 405.1975024 420 439 427.6111584 439 437 C 439 446.3888416 405.1975024 454 363.5 454 C 321.8024976 454 288 446.3888416 288 437 Z"></path></g><g transform="translate(-86,-14) scale(1,1)"><path fill="none" stroke="#000000" d="M 288 437 C 288 427.6111584 321.8024976 420 363.5 420 C 405.1975024 420 439 427.6111584 439 437 C 439 446.3888416 405.1975024 454 363.5 454 C 321.8024976 454 288 446.3888416 288 437 Z" stroke-miterlimit="10"></path></g><g transform="translate(-86,-14) scale(1,1)"><g><path fill="none" stroke="none"></path><text fill="#000000" stroke="none" font-family="Arial" font-size="13px" font-style="normal" font-weight="bold" text-decoration="none" x="331.5" y="444">delete post</text></g></g><g transform="translate(-86,-14) scale(1,1)"><path fill="none" stroke="#000000" d="M 173 319 L 334 419" stroke-miterlimit="10"></path></g><g transform="translate(-86,-14) scale(1,1)"><path fill="none" stroke="#000000" d="M 173 284 L 301 247" stroke-miterlimit="10"></path></g><g transform="translate(-86,-14) scale(1,1)"><path fill="#C0C0C0" stroke="none" d="M 317 344 C 317 334.6111584 340.7289056 327 370 327 C 399.2710944 327 423 334.6111584 423 344 C 423 353.3888416 399.2710944 361 370 361 C 340.7289056 361 317 353.3888416 317 344 Z" opacity="0.2"></path></g><g transform="translate(-86,-14) scale(1,1)"><path fill="#ffffff" stroke="none" d="M 310 337 C 310 327.6111584 333.7289056 320 363 320 C 392.2710944 320 416 327.6111584 416 337 C 416 346.3888416 392.2710944 354 363 354 C 333.7289056 354 310 346.3888416 310 337 Z"></path></g><g transform="translate(-86,-14) scale(1,1)"><path fill="none" stroke="#000000" d="M 310 337 C 310 327.6111584 333.7289056 320 363 320 C 392.2710944 320 416 327.6111584 416 337 C 416 346.3888416 392.2710944 354 363 354 C 333.7289056 354 310 346.3888416 310 337 Z" stroke-miterlimit="10"></path></g><g transform="translate(-86,-14) scale(1,1)"><g><path fill="none" stroke="none"></path><text fill="#000000" stroke="none" font-family="Arial" font-size="13px" font-style="normal" font-weight="bold" text-decoration="none" x="332" y="344">view posts</text></g></g><g transform="translate(-86,-14) scale(1,1)"><path fill="none" stroke="#000000" d="M 173 302 L 309 327" stroke-miterlimit="10"></path></g><g transform="translate(-86,-14) scale(1,1)"><path fill="#ffffff" stroke="none" d="M 747.8207272727273 245.68 C 747.8207272727273 240.886167936 751.7065695976727 237 756.5 237 C 761.2934304023273 237 765.1792727272727 240.886167936 765.1792727272727 245.68 C 765.1792727272727 250.47383206400002 761.2934304023273 254.36 756.5 254.36 C 751.7065695976727 254.36 747.8207272727273 250.47383206400002 747.8207272727273 245.68 Z"></path></g><g transform="translate(-86,-14) scale(1,1)"><path fill="none" stroke="#000000" d="M 747.8207272727273 245.68 C 747.8207272727273 240.886167936 751.7065695976727 237 756.5 237 C 761.2934304023273 237 765.1792727272727 240.886167936 765.1792727272727 245.68 C 765.1792727272727 250.47383206400002 761.2934304023273 254.36 756.5 254.36 C 751.7065695976727 254.36 747.8207272727273 250.47383206400002 747.8207272727273 245.68 Z" stroke-miterlimit="10"></path></g><g transform="translate(-86,-14) scale(1,1)"><path fill="none" stroke="#000000" d="M 756.5 254.36 L 756.5 271.64" stroke-miterlimit="10"></path></g><g transform="translate(-86,-14) scale(1,1)"><path fill="none" stroke="#000000" d="M 747.3101818181818 260.84 L 765.6898181818182 260.84" stroke-miterlimit="10"></path></g><g transform="translate(-86,-14) scale(1,1)"><path fill="none" stroke="#000000" d="M 756.5 271.64 L 743.7363636363636 289" stroke-miterlimit="10"></path></g><g transform="translate(-86,-14) scale(1,1)"><path fill="none" stroke="#000000" d="M 756.5 271.64 L 769.2636363636364 289" stroke-miterlimit="10"></path></g><g transform="translate(-86,-14) scale(1,1)"><g><path fill="none" stroke="none"></path><text fill="#000000" stroke="none" font-family="Arial" font-size="13px" font-style="normal" font-weight="bold" text-decoration="none" x="743" y="309.5">User</text></g></g><g transform="translate(-86,-14) scale(1,1)"><path fill="none" stroke="#000000" d="M 417 328 L 731 279" stroke-miterlimit="10"></path></g></g></svg>