<svg version="1.1" xmlns="http://www.w3.org/2000/svg" xmlns:xlink="http://www.w3.org/1999/xlink" width="356" height="240"><defs></defs><g><g transform="translate(-6,-2) scale(1,1)"><rect fill="#C0C0C0" stroke="none" x="71" y="19" width="288" height="220" opacity="0.2"></rect></g><g transform="translate(-6,-2) scale(1,1)"><rect fill="#ffffff" stroke="none" x="64" y="12" width="288" height="220"></rect></g><g transform="translate(-6,-2) scale(1,1)"><path fill="none" stroke="#000000" d="M 64 12 L 352 12 L 352 232 L 64 232 L 64 12 Z Z" stroke-miterlimit="10"></path></g><g transform="translate(-6,-2) scale(1,1)"><g><path fill="none" stroke="none"></path><text fill="#000000" stroke="none" font-family="Arial" font-size="13px" font-style="normal" font-weight="bold" text-decoration="none" x="191.5" y="31.5">Circle</text></g></g><g transform="translate(-6,-2) scale(1,1)"><path fill="#ffffff" stroke="none" d="M 31.82072727272727 65.68 C 31.82072727272727 60.88616793600001 35.706569597672726 57 40.5 57 C 45.293430402327274 57 49.17927272727273 60.88616793600001 49.17927272727273 65.68 C 49.17927272727273 70.473832064 45.293430402327274 74.36 40.5 74.36 C 35.706569597672726 74.36 31.82072727272727 70.473832064 31.82072727272727 65.68 Z"></path></g><g transform="translate(-6,-2) scale(1,1)"><path fill="none" stroke="#000000" d="M 31.82072727272727 65.68 C 31.82072727272727 60.88616793600001 35.706569597672726 57 40.5 57 C 45.293430402327274 57 49.17927272727273 60.88616793600001 49.17927272727273 65.68 C 49.17927272727273 70.473832064 45.293430402327274 74.36 40.5 74.36 C 35.706569597672726 74.36 31.82072727272727 70.473832064 31.82072727272727 65.68 Z" stroke-miterlimit="10"></path></g><g transform="translate(-6,-2) scale(1,1)"><path fill="none" stroke="#000000" d="M 40.5 74.36 L 40.5 91.64" stroke-miterlimit="10"></path></g><g transform="translate(-6,-2) scale(1,1)"><path fill="none" stroke="#000000" d="M 31.310181818181817 80.84 L 49.68981818181818 80.84" stroke-miterlimit="10"></path></g><g transform="translate(-6,-2) scale(1,1)"><path fill="none" stroke="#000000" d="M 40.5 91.64 L 27.736363636363635 109" stroke-miterlimit="10"></path></g><g transform="translate(-6,-2) scale(1,1)"><path fill="none" stroke="#000000" d="M 40.5 91.64 L 53.263636363636365 109" stroke-miterlimit="10"></path></g><g transform="translate(-6,-2) scale(1,1)"><g><path fill="none" stroke="none"></path><text fill="#000000" stroke="none" font-family="Arial" font-size="13px" font-style="normal" font-weight="bold" text-decoration="none" x="28" y="129.5">user</text></g></g><g transform="translate(-6,-2) scale(1,1)"><path fill="#C0C0C0" stroke="none" d="M 171 64 C 171 54.6111584 204.1309248 47 245 47 C 285.8690752 47 319 54.6111584 319 64 C 319 73.3888416 285.8690752 81 245 81 C 204.1309248 81 171 73.3888416 171 64 Z" opacity="0.2"></path></g><g transform="translate(-6,-2) scale(1,1)"><path fill="#ffffff" stroke="none" d="M 164 57 C 164 47.6111584 197.1309248 40 238 40 C 278.8690752 40 312 47.6111584 312 57 C 312 66.3888416 278.8690752 74 238 74 C 197.1309248 74 164 66.3888416 164 57 Z"></path></g><g transform="translate(-6,-2) scale(1,1)"><path fill="none" stroke="#000000" d="M 164 57 C 164 47.6111584 197.1309248 40 238 40 C 278.8690752 40 312 47.6111584 312 57 C 312 66.3888416 278.8690752 74 238 74 C 197.1309248 74 164 66.3888416 164 57 Z" stroke-miterlimit="10"></path></g><g transform="translate(-6,-2) scale(1,1)"><g><path fill="none" stroke="none"></path><text fill="#000000" stroke="none" font-family="Arial" font-size="13px" font-style="normal" font-weight="bold" text-decoration="none" x="193" y="64">see own circles</text></g></g><g transform="translate(-6,-2) scale(1,1)"><path fill="#C0C0C0" stroke="none" d="M 167 116 C 167 106.6111584 200.80249759999998 99 242.5 99 C 284.1975024 99 318 106.6111584 318 116 C 318 125.3888416 284.1975024 133 242.5 133 C 200.80249759999998 133 167 125.3888416 167 116 Z" opacity="0.2"></path></g><g transform="translate(-6,-2) scale(1,1)"><path fill="#ffffff" stroke="none" d="M 160 109 C 160 99.6111584 193.80249759999998 92 235.5 92 C 277.1975024 92 311 99.6111584 311 109 C 311 118.3888416 277.1975024 126 235.5 126 C 193.80249759999998 126 160 118.3888416 160 109 Z"></path></g><g transform="translate(-6,-2) scale(1,1)"><path fill="none" stroke="#000000" d="M 160 109 C 160 99.6111584 193.80249759999998 92 235.5 92 C 277.1975024 92 311 99.6111584 311 109 C 311 118.3888416 277.1975024 126 235.5 126 C 193.80249759999998 126 160 118.3888416 160 109 Z" stroke-miterlimit="10"></path></g><g transform="translate(-6,-2) scale(1,1)"><g><path fill="none" stroke="none"></path><text fill="#000000" stroke="none" font-family="Arial" font-size="13px" font-style="normal" font-weight="bold" text-decoration="none" x="194" y="116">edit own circle</text></g></g><g transform="translate(-6,-2) scale(1,1)"><path fill="#C0C0C0" stroke="none" d="M 159 176 C 159 166.6111584 197.2796496 159 244.5 159 C 291.72035040000003 159 330 166.6111584 330 176 C 330 185.3888416 291.72035040000003 193 244.5 193 C 197.2796496 193 159 185.3888416 159 176 Z" opacity="0.2"></path></g><g transform="translate(-6,-2) scale(1,1)"><path fill="#ffffff" stroke="none" d="M 152 169 C 152 159.6111584 190.2796496 152 237.5 152 C 284.72035040000003 152 323 159.6111584 323 169 C 323 178.3888416 284.72035040000003 186 237.5 186 C 190.2796496 186 152 178.3888416 152 169 Z"></path></g><g transform="translate(-6,-2) scale(1,1)"><path fill="none" stroke="#000000" d="M 152 169 C 152 159.6111584 190.2796496 152 237.5 152 C 284.72035040000003 152 323 159.6111584 323 169 C 323 178.3888416 284.72035040000003 186 237.5 186 C 190.2796496 186 152 178.3888416 152 169 Z" stroke-miterlimit="10"></path></g><g transform="translate(-6,-2) scale(1,1)"><g><path fill="none" stroke="none"></path><text fill="#000000" stroke="none" font-family="Arial" font-size="13px" font-style="normal" font-weight="bold" text-decoration="none" x="189" y="176">delete own circle</text></g></g><g transform="translate(-6,-2) scale(1,1)"><path fill="none" stroke="#000000" d="M 66 90 L 163 71" stroke-miterlimit="10"></path></g><g transform="translate(-6,-2) scale(1,1)"><path fill="none" stroke="#000000" d="M 66 105 L 189 151" stroke-miterlimit="10"></path></g><g transform="translate(-6,-2) scale(1,1)"><path fill="none" stroke="#000000" d="M 66 97 L 159 104" stroke-miterlimit="10"></path></g></g></svg>