<svg version="1.1" xmlns="http://www.w3.org/2000/svg" xmlns:xlink="http://www.w3.org/1999/xlink" width="375" height="260"><defs></defs><g><g transform="translate(-10,-81) scale(1,1)"><rect fill="#C0C0C0" stroke="none" x="159" y="98" width="223" height="240" opacity="0.2"></rect></g><g transform="translate(-10,-81) scale(1,1)"><rect fill="#ffffff" stroke="none" x="152" y="91" width="223" height="240"></rect></g><g transform="translate(-10,-81) scale(1,1)"><path fill="none" stroke="#000000" d="M 152 91 L 375 91 L 375 331 L 152 331 L 152 91 Z Z" stroke-miterlimit="10"></path></g><g transform="translate(-10,-81) scale(1,1)"><g><path fill="none" stroke="none"></path><text fill="#000000" stroke="none" font-family="Arial" font-size="13px" font-style="normal" font-weight="bold" text-decoration="none" x="241" y="110.5">System</text></g></g><g transform="translate(-10,-81) scale(1,1)"><path fill="#ffffff" stroke="none" d="M 35.82072727272727 181.68 C 35.82072727272727 176.886167936 39.706569597672726 173 44.5 173 C 49.293430402327274 173 53.17927272727273 176.886167936 53.17927272727273 181.68 C 53.17927272727273 186.47383206400002 49.293430402327274 190.36 44.5 190.36 C 39.706569597672726 190.36 35.82072727272727 186.47383206400002 35.82072727272727 181.68 Z"></path></g><g transform="translate(-10,-81) scale(1,1)"><path fill="none" stroke="#000000" d="M 35.82072727272727 181.68 C 35.82072727272727 176.886167936 39.706569597672726 173 44.5 173 C 49.293430402327274 173 53.17927272727273 176.886167936 53.17927272727273 181.68 C 53.17927272727273 186.47383206400002 49.293430402327274 190.36 44.5 190.36 C 39.706569597672726 190.36 35.82072727272727 186.47383206400002 35.82072727272727 181.68 Z" stroke-miterlimit="10"></path></g><g transform="translate(-10,-81) scale(1,1)"><path fill="none" stroke="#000000" d="M 44.5 190.36 L 44.5 207.64" stroke-miterlimit="10"></path></g><g transform="translate(-10,-81) scale(1,1)"><path fill="none" stroke="#000000" d="M 35.31018181818182 196.84 L 53.68981818181818 196.84" stroke-miterlimit="10"></path></g><g transform="translate(-10,-81) scale(1,1)"><path fill="none" stroke="#000000" d="M 44.5 207.64 L 31.736363636363635 225" stroke-miterlimit="10"></path></g><g transform="translate(-10,-81) scale(1,1)"><path fill="none" stroke="#000000" d="M 44.5 207.64 L 57.263636363636365 225" stroke-miterlimit="10"></path></g><g transform="translate(-10,-81) scale(1,1)"><g><path fill="none" stroke="none"></path><text fill="#000000" stroke="none" font-family="Arial" font-size="13px" font-style="normal" font-weight="bold" text-decoration="none" x="32" y="245.5">user</text></g></g><g transform="translate(-10,-81) scale(1,1)"><path fill="#C0C0C0" stroke="none" d="M 222 218 C 222 208.6111584 243.7141872 201 270.5 201 C 297.28581280000003 201 319 208.6111584 319 218 C 319 227.3888416 297.28581280000003 235 270.5 235 C 243.7141872 235 222 227.3888416 222 218 Z" opacity="0.2"></path></g><g transform="translate(-10,-81) scale(1,1)"><path fill="#ffffff" stroke="none" d="M 215 211 C 215 201.6111584 236.7141872 194 263.5 194 C 290.28581280000003 194 312 201.6111584 312 211 C 312 220.3888416 290.28581280000003 228 263.5 228 C 236.7141872 228 215 220.3888416 215 211 Z"></path></g><g transform="translate(-10,-81) scale(1,1)"><path fill="none" stroke="#000000" d="M 215 211 C 215 201.6111584 236.7141872 194 263.5 194 C 290.28581280000003 194 312 201.6111584 312 211 C 312 220.3888416 290.28581280000003 228 263.5 228 C 236.7141872 228 215 220.3888416 215 211 Z" stroke-miterlimit="10"></path></g><g transform="translate(-10,-81) scale(1,1)"><g><path fill="none" stroke="none"></path><text fill="#000000" stroke="none" font-family="Arial" font-size="13px" font-style="normal" font-weight="bold" text-decoration="none" x="244" y="218">search</text></g></g><g transform="translate(-10,-81) scale(1,1)"><path fill="none" stroke="#000000" d="M 70 211 L 214 211" stroke-miterlimit="10"></path></g></g></svg>