<svg version="1.1" xmlns="http://www.w3.org/2000/svg" xmlns:xlink="http://www.w3.org/1999/xlink" width="428" height="268"><defs></defs><g><g transform="translate(-10,-78) scale(1,1)"><rect fill="#C0C0C0" stroke="none" x="119" y="95" width="316" height="248" opacity="0.2"></rect></g><g transform="translate(-10,-78) scale(1,1)"><rect fill="#ffffff" stroke="none" x="112" y="88" width="316" height="248"></rect></g><g transform="translate(-10,-78) scale(1,1)"><path fill="none" stroke="#000000" d="M 112 88 L 428 88 L 428 336 L 112 336 L 112 88 Z Z" stroke-miterlimit="10"></path></g><g transform="translate(-10,-78) scale(1,1)"><g><path fill="none" stroke="none"></path><text fill="#000000" stroke="none" font-family="Arial" font-size="13px" font-style="normal" font-weight="bold" text-decoration="none" x="247.5" y="107.5">System</text></g></g><g transform="translate(-10,-78) scale(1,1)"><path fill="#ffffff" stroke="none" d="M 35.82072727272727 181.68 C 35.82072727272727 176.886167936 39.706569597672726 173 44.5 173 C 49.293430402327274 173 53.17927272727273 176.886167936 53.17927272727273 181.68 C 53.17927272727273 186.47383206400002 49.293430402327274 190.36 44.5 190.36 C 39.706569597672726 190.36 35.82072727272727 186.47383206400002 35.82072727272727 181.68 Z"></path></g><g transform="translate(-10,-78) scale(1,1)"><path fill="none" stroke="#000000" d="M 35.82072727272727 181.68 C 35.82072727272727 176.886167936 39.706569597672726 173 44.5 173 C 49.293430402327274 173 53.17927272727273 176.886167936 53.17927272727273 181.68 C 53.17927272727273 186.47383206400002 49.293430402327274 190.36 44.5 190.36 C 39.706569597672726 190.36 35.82072727272727 186.47383206400002 35.82072727272727 181.68 Z" stroke-miterlimit="10"></path></g><g transform="translate(-10,-78) scale(1,1)"><path fill="none" stroke="#000000" d="M 44.5 190.36 L 44.5 207.64" stroke-miterlimit="10"></path></g><g transform="translate(-10,-78) scale(1,1)"><path fill="none" stroke="#000000" d="M 35.31018181818182 196.84 L 53.68981818181818 196.84" stroke-miterlimit="10"></path></g><g transform="translate(-10,-78) scale(1,1)"><path fill="none" stroke="#000000" d="M 44.5 207.64 L 31.736363636363635 225" stroke-miterlimit="10"></path></g><g transform="translate(-10,-78) scale(1,1)"><path fill="none" stroke="#000000" d="M 44.5 207.64 L 57.263636363636365 225" stroke-miterlimit="10"></path></g><g transform="translate(-10,-78) scale(1,1)"><g><path fill="none" stroke="none"></path><text fill="#000000" stroke="none" font-family="Arial" font-size="13px" font-style="normal" font-weight="bold" text-decoration="none" x="32" y="245.5">user</text></g></g><g transform="translate(-10,-78) scale(1,1)"><path fill="#C0C0C0" stroke="none" d="M 135 212 C 135 202.6111584 156.7141872 195 183.5 195 C 210.2858128 195 232 202.6111584 232 212 C 232 221.3888416 210.2858128 229 183.5 229 C 156.7141872 229 135 221.3888416 135 212 Z" opacity="0.2"></path></g><g transform="translate(-10,-78) scale(1,1)"><path fill="#ffffff" stroke="none" d="M 128 205 C 128 195.6111584 149.7141872 188 176.5 188 C 203.2858128 188 225 195.6111584 225 205 C 225 214.3888416 203.2858128 222 176.5 222 C 149.7141872 222 128 214.3888416 128 205 Z"></path></g><g transform="translate(-10,-78) scale(1,1)"><path fill="none" stroke="#000000" d="M 128 205 C 128 195.6111584 149.7141872 188 176.5 188 C 203.2858128 188 225 195.6111584 225 205 C 225 214.3888416 203.2858128 222 176.5 222 C 149.7141872 222 128 214.3888416 128 205 Z" stroke-miterlimit="10"></path></g><g transform="translate(-10,-78) scale(1,1)"><g><path fill="none" stroke="none"></path><text fill="#000000" stroke="none" font-family="Arial" font-size="13px" font-style="normal" font-weight="bold" text-decoration="none" x="157" y="212">search</text></g></g><g transform="translate(-10,-78) scale(1,1)"><path fill="none" stroke="#000000" d="M 70 210 L 127 207" stroke-miterlimit="10"></path></g><g transform="translate(-10,-78) scale(1,1)"><path fill="#C0C0C0" stroke="none" d="M 203 144 C 203 134.6111584 235.6832096 127 276 127 C 316.3167904 127 349 134.6111584 349 144 C 349 153.3888416 316.3167904 161 276 161 C 235.6832096 161 203 153.3888416 203 144 Z" opacity="0.2"></path></g><g transform="translate(-10,-78) scale(1,1)"><path fill="#ffffff" stroke="none" d="M 196 137 C 196 127.6111584 228.6832096 120 269 120 C 309.3167904 120 342 127.6111584 342 137 C 342 146.3888416 309.3167904 154 269 154 C 228.6832096 154 196 146.3888416 196 137 Z"></path></g><g transform="translate(-10,-78) scale(1,1)"><path fill="none" stroke="#000000" d="M 196 137 C 196 127.6111584 228.6832096 120 269 120 C 309.3167904 120 342 127.6111584 342 137 C 342 146.3888416 309.3167904 154 269 154 C 228.6832096 154 196 146.3888416 196 137 Z" stroke-miterlimit="10"></path></g><g transform="translate(-10,-78) scale(1,1)"><g><path fill="none" stroke="none"></path><text fill="#000000" stroke="none" font-family="Arial" font-size="13px" font-style="normal" font-weight="bold" text-decoration="none" x="224.5" y="144">hashtag search</text></g></g><g transform="translate(-10,-78) scale(1,1)"><path fill="#C0C0C0" stroke="none" d="M 299 212 C 299 202.6111584 326.7583424 195 361 195 C 395.2416576 195 423 202.6111584 423 212 C 423 221.3888416 395.2416576 229 361 229 C 326.7583424 229 299 221.3888416 299 212 Z" opacity="0.2"></path></g><g transform="translate(-10,-78) scale(1,1)"><path fill="#ffffff" stroke="none" d="M 292 205 C 292 195.6111584 319.7583424 188 354 188 C 388.2416576 188 416 195.6111584 416 205 C 416 214.3888416 388.2416576 222 354 222 C 319.7583424 222 292 214.3888416 292 205 Z"></path></g><g transform="translate(-10,-78) scale(1,1)"><path fill="none" stroke="#000000" d="M 292 205 C 292 195.6111584 319.7583424 188 354 188 C 388.2416576 188 416 195.6111584 416 205 C 416 214.3888416 388.2416576 222 354 222 C 319.7583424 222 292 214.3888416 292 205 Z" stroke-miterlimit="10"></path></g><g transform="translate(-10,-78) scale(1,1)"><g><path fill="none" stroke="none"></path><text fill="#000000" stroke="none" font-family="Arial" font-size="13px" font-style="normal" font-weight="bold" text-decoration="none" x="317" y="212">circle search</text></g></g><g transform="translate(-10,-78) scale(1,1)"><path fill="none" stroke="#000000" d="M 244 155 L 201 187" stroke-miterlimit="10" stroke-dasharray="3"></path></g><g transform="translate(-10,-78) scale(1,1)"><path fill="none" stroke="#000000" d="M 206.6397079538062 177.5557586754798 L 201 187 L 211.66596282177852 184.30978865431763" stroke-miterlimit="10"></path></g><g transform="translate(-10,-78) scale(1,1)"><g><path fill="none" stroke="none"></path><text fill="#000000" stroke="none" font-family="Arial" font-size="13px" font-style="normal" font-weight="normal" text-decoration="none" x="177" y="172">«extend»</text></g></g><g transform="translate(-10,-78) scale(1,1)"><path fill="none" stroke="#000000" d="M 291 205 L 226 205" stroke-miterlimit="10" stroke-dasharray="3"></path></g><g transform="translate(-10,-78) scale(1,1)"><path fill="none" stroke="#000000" d="M 236.16267485762415 200.790482243984 L 226 205 L 236.16267485762415 209.209517756016" stroke-miterlimit="10"></path></g><g transform="translate(-10,-78) scale(1,1)"><g><path fill="none" stroke="none"></path><text fill="#000000" stroke="none" font-family="Arial" font-size="13px" font-style="normal" font-weight="normal" text-decoration="none" x="241" y="220">«extend»</text></g></g></g></svg>