<svg version="1.1" xmlns="http://www.w3.org/2000/svg" xmlns:xlink="http://www.w3.org/1999/xlink" width="697" height="547"><defs></defs><g><g transform="translate(-86,-14) scale(1,1)"><rect fill="#C0C0C0" stroke="none" x="199" y="31" width="499" height="527" opacity="0.2"></rect></g><g transform="translate(-86,-14) scale(1,1)"><rect fill="#ffffff" stroke="none" x="192" y="24" width="499" height="527"></rect></g><g transform="translate(-86,-14) scale(1,1)"><path fill="none" stroke="#000000" d="M 192 24 L 691 24 L 691 551 L 192 551 L 192 24 Z Z" stroke-miterlimit="10"></path></g><g transform="translate(-86,-14) scale(1,1)"><g><path fill="none" stroke="none"></path><text fill="#000000" stroke="none" font-family="Arial" font-size="13px" font-style="normal" font-weight="bold" text-decoration="none" x="419" y="43.5">System</text></g></g><g transform="translate(-86,-14) scale(1,1)"><path fill="#ffffff" stroke="none" d="M 125.32072727272728 265.68 C 125.32072727272728 260.886167936 129.20656959767274 257 134 257 C 138.79343040232726 257 142.67927272727272 260.886167936 142.67927272727272 265.68 C 142.67927272727272 270.473832064 138.79343040232726 274.36 134 274.36 C 129.20656959767274 274.36 125.32072727272728 270.473832064 125.32072727272728 265.68 Z"></path></g><g transform="translate(-86,-14) scale(1,1)"><path fill="none" stroke="#000000" d="M 125.32072727272728 265.68 C 125.32072727272728 260.886167936 129.20656959767274 257 134 257 C 138.79343040232726 257 142.67927272727272 260.886167936 142.67927272727272 265.68 C 142.67927272727272 270.473832064 138.79343040232726 274.36 134 274.36 C 129.20656959767274 274.36 125.32072727272728 270.473832064 125.32072727272728 265.68 Z" stroke-miterlimit="10"></path></g><g transform="translate(-86,-14) scale(1,1)"><path fill="none" stroke="#000000" d="M 134 274.36 L 134 291.64" stroke-miterlimit="10"></path></g><g transform="translate(-86,-14) scale(1,1)"><path fill="none" stroke="#000000" d="M 124.81018181818183 280.84 L 143.18981818181817 280.84" stroke-miterlimit="10"></path></g><g transform="translate(-86,-14) scale(1,1)"><path fill="none" stroke="#000000" d="M 134 291.64 L 121.23636363636365 309" stroke-miterlimit="10"></path></g><g transform="translate(-86,-14) scale(1,1)"><path fill="none" stroke="#000000" d="M 134 291.64 L 146.76363636363635 309" stroke-miterlimit="10"></path></g><g transform="translate(-86,-14) scale(1,1)"><g><path fill="none" stroke="none"></path><text fill="#000000" stroke="none" font-family="Arial" font-size="13px" font-style="normal" font-weight="bold" text-decoration="none" x="116" y="329.5">author</text></g></g><g transform="translate(-86,-14) scale(1,1)"><path fill="#C0C0C0" stroke="none" d="M 319 104 C 319 94.6111584 341.8334752 87 370 87 C 398.1665248 87 421 94.6111584 421 104 C 421 113.3888416 398.1665248 121 370 121 C 341.8334752 121 319 113.3888416 319 104 Z" opacity="0.2"></path></g><g transform="translate(-86,-14) scale(1,1)"><path fill="#ffffff" stroke="none" d="M 312 97 C 312 87.6111584 334.8334752 80 363 80 C 391.1665248 80 414 87.6111584 414 97 C 414 106.3888416 391.1665248 114 363 114 C 334.8334752 114 312 106.3888416 312 97 Z"></path></g><g transform="translate(-86,-14) scale(1,1)"><path fill="none" stroke="#000000" d="M 312 97 C 312 87.6111584 334.8334752 80 363 80 C 391.1665248 80 414 87.6111584 414 97 C 414 106.3888416 391.1665248 114 363 114 C 334.8334752 114 312 106.3888416 312 97 Z" stroke-miterlimit="10"></path></g><g transform="translate(-86,-14) scale(1,1)"><g><path fill="none" stroke="none"></path><text fill="#000000" stroke="none" font-family="Arial" font-size="13px" font-style="normal" font-weight="bold" text-decoration="none" x="335" y="104">write post</text></g></g><g transform="translate(-86,-14) scale(1,1)"><path fill="none" stroke="#000000" d="M 173 261 L 342 115" stroke-miterlimit="10"></path></g><g transform="translate(-86,-14) scale(1,1)"><path fill="#C0C0C0" stroke="none" d="M 305 236 C 305 226.6111584 334.3253456 219 370.5 219 C 406.6746544 219 436 226.6111584 436 236 C 436 245.3888416 406.6746544 253 370.5 253 C 334.3253456 253 305 245.3888416 305 236 Z" opacity="0.2"></path></g><g transform="translate(-86,-14) scale(1,1)"><path fill="#ffffff" stroke="none" d="M 298 229 C 298 219.6111584 327.3253456 212 363.5 212 C 399.6746544 212 429 219.6111584 429 229 C 429 238.3888416 399.6746544 246 363.5 246 C 327.3253456 246 298 238.3888416 298 229 Z"></path></g><g transform="translate(-86,-14) scale(1,1)"><path fill="none" stroke="#000000" d="M 298 229 C 298 219.6111584 327.3253456 212 363.5 212 C 399.6746544 212 429 219.6111584 429 229 C 429 238.3888416 399.6746544 246 363.5 246 C 327.3253456 246 298 238.3888416 298 229 Z" stroke-miterlimit="10"></path></g><g transform="translate(-86,-14) scale(1,1)"><g><path fill="none" stroke="none"></path><text fill="#000000" stroke="none" font-family="Arial" font-size="13px" font-style="normal" font-weight="bold" text-decoration="none" x="338.5" y="236">edit post</text></g></g><g transform="translate(-86,-14) scale(1,1)"><path fill="#C0C0C0" stroke="none" d="M 295 444 C 295 434.6111584 328.8024976 427 370.5 427 C 412.1975024 427 446 434.6111584 446 444 C 446 453.3888416 412.1975024 461 370.5 461 C 328.8024976 461 295 453.3888416 295 444 Z" opacity="0.2"></path></g><g transform="translate(-86,-14) scale(1,1)"><path fill="#ffffff" stroke="none" d="M 288 437 C 288 427.6111584 321.8024976 420 363.5 420 C 405.1975024 420 439 427.6111584 439 437 C 439 446.3888416 405.1975024 454 363.5 454 C 321.8024976 454 288 446.3888416 288 437 Z"></path></g><g transform="translate(-86,-14) scale(1,1)"><path fill="none" stroke="#000000" d="M 288 437 C 288 427.6111584 321.8024976 420 363.5 420 C 405.1975024 420 439 427.6111584 439 437 C 439 446.3888416 405.1975024 454 363.5 454 C 321.8024976 454 288 446.3888416 288 437 Z" stroke-miterlimit="10"></path></g><g transform="translate(-86,-14) scale(1,1)"><g><path fill="none" stroke="none"></path><text fill="#000000" stroke="none" font-family="Arial" font-size="13px" font-style="normal" font-weight="bold" text-decoration="none" x="331.5" y="444">delete post</text></g></g><g transform="translate(-86,-14) scale(1,1)"><path fill="none" stroke="#000000" d="M 173 319 L 334 419" stroke-miterlimit="10"></path></g><g transform="translate(-86,-14) scale(1,1)"><path fill="none" stroke="#000000" d="M 173 284 L 301 247" stroke-miterlimit="10"></path></g><g transform="translate(-86,-14) scale(1,1)"><path fill="#C0C0C0" stroke="none" d="M 317 344 C 317 334.6111584 340.7289056 327 370 327 C 399.2710944 327 423 334.6111584 423 344 C 423 353.3888416 399.2710944 361 370 361 C 340.7289056 361 317 353.3888416 317 344 Z" opacity="0.2"></path></g><g transform="translate(-86,-14) scale(1,1)"><path fill="#ffffff" stroke="none" d="M 310 337 C 310 327.6111584 333.7289056 320 363 320 C 392.2710944 320 416 327.6111584 416 337 C 416 346.3888416 392.2710944 354 363 354 C 333.7289056 354 310 346.3888416 310 337 Z"></path></g><g transform="translate(-86,-14) scale(1,1)"><path fill="none" stroke="#000000" d="M 310 337 C 310 327.6111584 333.7289056 320 363 320 C 392.2710944 320 416 327.6111584 416 337 C 416 346.3888416 392.2710944 354 363 354 C 333.7289056 354 310 346.3888416 310 337 Z" stroke-miterlimit="10"></path></g><g transform="translate(-86,-14) scale(1,1)"><g><path fill="none" stroke="none"></path><text fill="#000000" stroke="none" font-family="Arial" font-size="13px" font-style="normal" font-weight="bold" text-decoration="none" x="332" y="344">view posts</text></g></g><g transform="translate(-86,-14) scale(1,1)"><path fill="none" stroke="#000000" d="M 173 302 L 309 327" stroke-miterlimit="10"></path></g><g transform="translate(-86,-14) scale(1,1)"><path fill="#ffffff" stroke="none" d="M 739.8207272727273 217.68 C 739.8207272727273 212.886167936 743.7065695976727 209 748.5 209 C 753.2934304023273 209 757.1792727272727 212.886167936 757.1792727272727 217.68 C 757.1792727272727 222.47383206400002 753.2934304023273 226.36 748.5 226.36 C 743.7065695976727 226.36 739.8207272727273 222.47383206400002 739.8207272727273 217.68 Z"></path></g><g transform="translate(-86,-14) scale(1,1)"><path fill="none" stroke="#000000" d="M 739.8207272727273 217.68 C 739.8207272727273 212.886167936 743.7065695976727 209 748.5 209 C 753.2934304023273 209 757.1792727272727 212.886167936 757.1792727272727 217.68 C 757.1792727272727 222.47383206400002 753.2934304023273 226.36 748.5 226.36 C 743.7065695976727 226.36 739.8207272727273 222.47383206400002 739.8207272727273 217.68 Z" stroke-miterlimit="10"></path></g><g transform="translate(-86,-14) scale(1,1)"><path fill="none" stroke="#000000" d="M 748.5 226.36 L 748.5 243.64" stroke-miterlimit="10"></path></g><g transform="translate(-86,-14) scale(1,1)"><path fill="none" stroke="#000000" d="M 739.3101818181818 232.84 L 757.6898181818182 232.84" stroke-miterlimit="10"></path></g><g transform="translate(-86,-14) scale(1,1)"><path fill="none" stroke="#000000" d="M 748.5 243.64 L 735.7363636363636 261" stroke-miterlimit="10"></path></g><g transform="translate(-86,-14) scale(1,1)"><path fill="none" stroke="#000000" d="M 748.5 243.64 L 761.2636363636364 261" stroke-miterlimit="10"></path></g><g transform="translate(-86,-14) scale(1,1)"><g><path fill="none" stroke="none"></path><text fill="#000000" stroke="none" font-family="Arial" font-size="13px" font-style="normal" font-weight="bold" text-decoration="none" x="735" y="281.5">User</text></g></g><g transform="translate(-86,-14) scale(1,1)"><path fill="none" stroke="#000000" d="M 417 324 L 723 253" stroke-miterlimit="10"></path></g><g transform="translate(-86,-14) scale(1,1)"><path fill="#C0C0C0" stroke="none" d="M 479 412 C 479 402.6111584 509.6684912 395 547.5 395 C 585.3315088 395 616 402.6111584 616 412 C 616 421.3888416 585.3315088 429 547.5 429 C 509.6684912 429 479 421.3888416 479 412 Z" opacity="0.2"></path></g><g transform="translate(-86,-14) scale(1,1)"><path fill="#ffffff" stroke="none" d="M 472 405 C 472 395.6111584 502.6684912 388 540.5 388 C 578.3315088 388 609 395.6111584 609 405 C 609 414.3888416 578.3315088 422 540.5 422 C 502.6684912 422 472 414.3888416 472 405 Z"></path></g><g transform="translate(-86,-14) scale(1,1)"><path fill="none" stroke="#000000" d="M 472 405 C 472 395.6111584 502.6684912 388 540.5 388 C 578.3315088 388 609 395.6111584 609 405 C 609 414.3888416 578.3315088 422 540.5 422 C 502.6684912 422 472 414.3888416 472 405 Z" stroke-miterlimit="10"></path></g><g transform="translate(-86,-14) scale(1,1)"><g><path fill="none" stroke="none"></path><text fill="#000000" stroke="none" font-family="Arial" font-size="13px" font-style="normal" font-weight="bold" text-decoration="none" x="499" y="412">favorite a post</text></g></g><g transform="translate(-86,-14) scale(1,1)"><path fill="#C0C0C0" stroke="none" d="M 531 344 C 531 334.6111584 552.7141872 327 579.5 327 C 606.2858128 327 628 334.6111584 628 344 C 628 353.3888416 606.2858128 361 579.5 361 C 552.7141872 361 531 353.3888416 531 344 Z" opacity="0.2"></path></g><g transform="translate(-86,-14) scale(1,1)"><path fill="#ffffff" stroke="none" d="M 524 337 C 524 327.6111584 545.7141872 320 572.5 320 C 599.2858128 320 621 327.6111584 621 337 C 621 346.3888416 599.2858128 354 572.5 354 C 545.7141872 354 524 346.3888416 524 337 Z"></path></g><g transform="translate(-86,-14) scale(1,1)"><path fill="none" stroke="#000000" d="M 524 337 C 524 327.6111584 545.7141872 320 572.5 320 C 599.2858128 320 621 327.6111584 621 337 C 621 346.3888416 599.2858128 354 572.5 354 C 545.7141872 354 524 346.3888416 524 337 Z" stroke-miterlimit="10"></path></g><g transform="translate(-86,-14) scale(1,1)"><g><path fill="none" stroke="none"></path><text fill="#000000" stroke="none" font-family="Arial" font-size="13px" font-style="normal" font-weight="bold" text-decoration="none" x="556.5" y="344">share</text></g></g><g transform="translate(-86,-14) scale(1,1)"><path fill="none" stroke="#000000" d="M 493 387 L 410 355" stroke-miterlimit="10" stroke-dasharray="3"></path></g><g transform="translate(-86,-14) scale(1,1)"><path fill="none" stroke="#000000" d="M 420.99663974413664 354.7281280859039 L 410 355 L 417.96804100741605 362.583556059273" stroke-miterlimit="10"></path></g><g transform="translate(-86,-14) scale(1,1)"><g><path fill="none" stroke="none"></path><text fill="#000000" stroke="none" font-family="Arial" font-size="13px" font-style="normal" font-weight="normal" text-decoration="none" x="412" y="385">«extend»</text></g></g><g transform="translate(-86,-14) scale(1,1)"><path fill="none" stroke="#000000" d="M 523 337 L 417 337" stroke-miterlimit="10" stroke-dasharray="3"></path></g><g transform="translate(-86,-14) scale(1,1)"><path fill="none" stroke="#000000" d="M 427.16267485762415 332.790482243984 L 417 337 L 427.16267485762415 341.209517756016" stroke-miterlimit="10"></path></g><g transform="translate(-86,-14) scale(1,1)"><g><path fill="none" stroke="none"></path><text fill="#000000" stroke="none" font-family="Arial" font-size="13px" font-style="normal" font-weight="normal" text-decoration="none" x="452" y="348">«extend»</text></g></g></g></svg>