<svg version="1.1" xmlns="http://www.w3.org/2000/svg" xmlns:xlink="http://www.w3.org/1999/xlink" width="472" height="476"><defs></defs><g><g transform="translate(-22,-26) scale(1,1)"><rect fill="#C0C0C0" stroke="none" x="143" y="43" width="348" height="456" opacity="0.2"></rect></g><g transform="translate(-22,-26) scale(1,1)"><rect fill="#ffffff" stroke="none" x="136" y="36" width="348" height="456"></rect></g><g transform="translate(-22,-26) scale(1,1)"><path fill="none" stroke="#000000" d="M 136 36 L 484 36 L 484 492 L 136 492 L 136 36 Z Z" stroke-miterlimit="10"></path></g><g transform="translate(-22,-26) scale(1,1)"><g><path fill="none" stroke="none"></path><text fill="#000000" stroke="none" font-family="Arial" font-size="13px" font-style="normal" font-weight="bold" text-decoration="none" x="281.5" y="55.5">topic:user</text></g></g><g transform="translate(-22,-26) scale(1,1)"><path fill="#ffffff" stroke="none" d="M 47.82072727272727 249.68 C 47.82072727272727 244.886167936 51.706569597672726 241 56.5 241 C 61.293430402327274 241 65.17927272727273 244.886167936 65.17927272727273 249.68 C 65.17927272727273 254.47383206400002 61.293430402327274 258.36 56.5 258.36 C 51.706569597672726 258.36 47.82072727272727 254.47383206400002 47.82072727272727 249.68 Z"></path></g><g transform="translate(-22,-26) scale(1,1)"><path fill="none" stroke="#000000" d="M 47.82072727272727 249.68 C 47.82072727272727 244.886167936 51.706569597672726 241 56.5 241 C 61.293430402327274 241 65.17927272727273 244.886167936 65.17927272727273 249.68 C 65.17927272727273 254.47383206400002 61.293430402327274 258.36 56.5 258.36 C 51.706569597672726 258.36 47.82072727272727 254.47383206400002 47.82072727272727 249.68 Z" stroke-miterlimit="10"></path></g><g transform="translate(-22,-26) scale(1,1)"><path fill="none" stroke="#000000" d="M 56.5 258.36 L 56.5 275.64" stroke-miterlimit="10"></path></g><g transform="translate(-22,-26) scale(1,1)"><path fill="none" stroke="#000000" d="M 47.31018181818182 264.84 L 65.68981818181818 264.84" stroke-miterlimit="10"></path></g><g transform="translate(-22,-26) scale(1,1)"><path fill="none" stroke="#000000" d="M 56.5 275.64 L 43.736363636363635 293" stroke-miterlimit="10"></path></g><g transform="translate(-22,-26) scale(1,1)"><path fill="none" stroke="#000000" d="M 56.5 275.64 L 69.26363636363637 293" stroke-miterlimit="10"></path></g><g transform="translate(-22,-26) scale(1,1)"><g><path fill="none" stroke="none"></path><text fill="#000000" stroke="none" font-family="Arial" font-size="13px" font-style="normal" font-weight="bold" text-decoration="none" x="44" y="313.5">user</text></g></g><g transform="translate(-22,-26) scale(1,1)"><path fill="#C0C0C0" stroke="none" d="M 167 168 C 167 158.6111584 188.7141872 151 215.5 151 C 242.2858128 151 264 158.6111584 264 168 C 264 177.3888416 242.2858128 185 215.5 185 C 188.7141872 185 167 177.3888416 167 168 Z" opacity="0.2"></path></g><g transform="translate(-22,-26) scale(1,1)"><path fill="#ffffff" stroke="none" d="M 160 161 C 160 151.6111584 181.7141872 144 208.5 144 C 235.2858128 144 257 151.6111584 257 161 C 257 170.3888416 235.2858128 178 208.5 178 C 181.7141872 178 160 170.3888416 160 161 Z"></path></g><g transform="translate(-22,-26) scale(1,1)"><path fill="none" stroke="#000000" d="M 160 161 C 160 151.6111584 181.7141872 144 208.5 144 C 235.2858128 144 257 151.6111584 257 161 C 257 170.3888416 235.2858128 178 208.5 178 C 181.7141872 178 160 170.3888416 160 161 Z" stroke-miterlimit="10"></path></g><g transform="translate(-22,-26) scale(1,1)"><g><path fill="none" stroke="none"></path><text fill="#000000" stroke="none" font-family="Arial" font-size="13px" font-style="normal" font-weight="bold" text-decoration="none" x="187.5" y="168">sign up</text></g></g><g transform="translate(-22,-26) scale(1,1)"><path fill="none" stroke="#000000" d="M 82 259 L 185 179" stroke-miterlimit="10"></path></g><g transform="translate(-22,-26) scale(1,1)"><path fill="#C0C0C0" stroke="none" d="M 187 100 C 187 90.6111584 232.2192352 83 288 83 C 343.7807648 83 389 90.6111584 389 100 C 389 109.3888416 343.7807648 117 288 117 C 232.2192352 117 187 109.3888416 187 100 Z" opacity="0.2"></path></g><g transform="translate(-22,-26) scale(1,1)"><path fill="#ffffff" stroke="none" d="M 180 93 C 180 83.6111584 225.2192352 76 281 76 C 336.7807648 76 382 83.6111584 382 93 C 382 102.3888416 336.7807648 110 281 110 C 225.2192352 110 180 102.3888416 180 93 Z"></path></g><g transform="translate(-22,-26) scale(1,1)"><path fill="none" stroke="#000000" d="M 180 93 C 180 83.6111584 225.2192352 76 281 76 C 336.7807648 76 382 83.6111584 382 93 C 382 102.3888416 336.7807648 110 281 110 C 225.2192352 110 180 102.3888416 180 93 Z" stroke-miterlimit="10"></path></g><g transform="translate(-22,-26) scale(1,1)"><g><path fill="none" stroke="none"></path><text fill="#000000" stroke="none" font-family="Arial" font-size="13px" font-style="normal" font-weight="bold" text-decoration="none" x="220" y="100">click verification mail</text></g></g><g transform="translate(-22,-26) scale(1,1)"><path fill="#C0C0C0" stroke="none" d="M 183 224 C 183 214.6111584 204.7141872 207 231.5 207 C 258.28581280000003 207 280 214.6111584 280 224 C 280 233.3888416 258.28581280000003 241 231.5 241 C 204.7141872 241 183 233.3888416 183 224 Z" opacity="0.2"></path></g><g transform="translate(-22,-26) scale(1,1)"><path fill="#ffffff" stroke="none" d="M 176 217 C 176 207.6111584 197.7141872 200 224.5 200 C 251.2858128 200 273 207.6111584 273 217 C 273 226.3888416 251.2858128 234 224.5 234 C 197.7141872 234 176 226.3888416 176 217 Z"></path></g><g transform="translate(-22,-26) scale(1,1)"><path fill="none" stroke="#000000" d="M 176 217 C 176 207.6111584 197.7141872 200 224.5 200 C 251.2858128 200 273 207.6111584 273 217 C 273 226.3888416 251.2858128 234 224.5 234 C 197.7141872 234 176 226.3888416 176 217 Z" stroke-miterlimit="10"></path></g><g transform="translate(-22,-26) scale(1,1)"><g><path fill="none" stroke="none"></path><text fill="#000000" stroke="none" font-family="Arial" font-size="13px" font-style="normal" font-weight="bold" text-decoration="none" x="205.5" y="224">sign in</text></g></g><g transform="translate(-22,-26) scale(1,1)"><path fill="#C0C0C0" stroke="none" d="M 167 284 C 167 274.6111584 198.34006399999998 267 237 267 C 275.659936 267 307 274.6111584 307 284 C 307 293.3888416 275.659936 301 237 301 C 198.34006399999998 301 167 293.3888416 167 284 Z" opacity="0.2"></path></g><g transform="translate(-22,-26) scale(1,1)"><path fill="#ffffff" stroke="none" d="M 160 277 C 160 267.6111584 191.34006399999998 260 230 260 C 268.659936 260 300 267.6111584 300 277 C 300 286.3888416 268.659936 294 230 294 C 191.34006399999998 294 160 286.3888416 160 277 Z"></path></g><g transform="translate(-22,-26) scale(1,1)"><path fill="none" stroke="#000000" d="M 160 277 C 160 267.6111584 191.34006399999998 260 230 260 C 268.659936 260 300 267.6111584 300 277 C 300 286.3888416 268.659936 294 230 294 C 191.34006399999998 294 160 286.3888416 160 277 Z" stroke-miterlimit="10"></path></g><g transform="translate(-22,-26) scale(1,1)"><g><path fill="none" stroke="none"></path><text fill="#000000" stroke="none" font-family="Arial" font-size="13px" font-style="normal" font-weight="bold" text-decoration="none" x="187.5" y="284">delete account</text></g></g><g transform="translate(-22,-26) scale(1,1)"><path fill="#C0C0C0" stroke="none" d="M 175 332 C 175 322.6111584 210.1456432 315 253.5 315 C 296.8543568 315 332 322.6111584 332 332 C 332 341.3888416 296.8543568 349 253.5 349 C 210.1456432 349 175 341.3888416 175 332 Z" opacity="0.2"></path></g><g transform="translate(-22,-26) scale(1,1)"><path fill="#ffffff" stroke="none" d="M 168 325 C 168 315.6111584 203.1456432 308 246.5 308 C 289.8543568 308 325 315.6111584 325 325 C 325 334.3888416 289.8543568 342 246.5 342 C 203.1456432 342 168 334.3888416 168 325 Z"></path></g><g transform="translate(-22,-26) scale(1,1)"><path fill="none" stroke="#000000" d="M 168 325 C 168 315.6111584 203.1456432 308 246.5 308 C 289.8543568 308 325 315.6111584 325 325 C 325 334.3888416 289.8543568 342 246.5 342 C 203.1456432 342 168 334.3888416 168 325 Z" stroke-miterlimit="10"></path></g><g transform="translate(-22,-26) scale(1,1)"><g><path fill="none" stroke="none"></path><text fill="#000000" stroke="none" font-family="Arial" font-size="13px" font-style="normal" font-weight="bold" text-decoration="none" x="200.5" y="332">view own profile</text></g></g><g transform="translate(-22,-26) scale(1,1)"><path fill="#C0C0C0" stroke="none" d="M 171 384 C 171 374.6111584 207.4887888 367 252.5 367 C 297.5112112 367 334 374.6111584 334 384 C 334 393.3888416 297.5112112 401 252.5 401 C 207.4887888 401 171 393.3888416 171 384 Z" opacity="0.2"></path></g><g transform="translate(-22,-26) scale(1,1)"><path fill="#ffffff" stroke="none" d="M 164 377 C 164 367.6111584 200.4887888 360 245.5 360 C 290.5112112 360 327 367.6111584 327 377 C 327 386.3888416 290.5112112 394 245.5 394 C 200.4887888 394 164 386.3888416 164 377 Z"></path></g><g transform="translate(-22,-26) scale(1,1)"><path fill="none" stroke="#000000" d="M 164 377 C 164 367.6111584 200.4887888 360 245.5 360 C 290.5112112 360 327 367.6111584 327 377 C 327 386.3888416 290.5112112 394 245.5 394 C 200.4887888 394 164 386.3888416 164 377 Z" stroke-miterlimit="10"></path></g><g transform="translate(-22,-26) scale(1,1)"><g><path fill="none" stroke="none"></path><text fill="#000000" stroke="none" font-family="Arial" font-size="13px" font-style="normal" font-weight="bold" text-decoration="none" x="196.5" y="384">edit own account</text></g></g><g transform="translate(-22,-26) scale(1,1)"><path fill="none" stroke="#000000" d="M 82 269 L 175 235" stroke-miterlimit="10"></path></g><g transform="translate(-22,-26) scale(1,1)"><path fill="none" stroke="#000000" d="M 82 279 L 159 278" stroke-miterlimit="10"></path></g><g transform="translate(-22,-26) scale(1,1)"><path fill="none" stroke="#000000" d="M 82 285 L 172 307" stroke-miterlimit="10"></path></g><g transform="translate(-22,-26) scale(1,1)"><path fill="none" stroke="#000000" d="M 82 292 L 210 359" stroke-miterlimit="10"></path></g><g transform="translate(-22,-26) scale(1,1)"><path fill="none" stroke="#000000" d="M 262 111 L 227 143" stroke-miterlimit="10" stroke-dasharray="3"></path></g><g transform="translate(-22,-26) scale(1,1)"><path fill="none" stroke="#000000" d="M 231.65989392524062 133.03579463251054 L 227 143 L 237.34079977863482 139.24928540966047" stroke-miterlimit="10"></path></g><g transform="translate(-22,-26) scale(1,1)"><g><path fill="none" stroke="none"></path><text fill="#000000" stroke="none" font-family="Arial" font-size="13px" font-style="normal" font-weight="normal" text-decoration="none" x="243" y="137">«include»</text></g></g></g></svg>